<svg width="330" height="40" viewBox="0 0 330 40" fill="none" xmlns="http://www.w3.org/2000/svg">
<g clip-path="url(#clip0_85_3804)">
<rect width="40" height="40" fill="#6750A4" fill-opacity="0.08"/>
<path d="M21.2715 15.0127V25H19.624V16.9678L17.1836 17.7949V16.4346L21.0732 15.0127H21.2715Z" fill="#0C51FF"/>
</g>
<rect x="0.5" y="0.5" width="39" height="39" rx="19.5" stroke="#79747E"/>
<g clip-path="url(#clip1_85_3804)">
<rect width="40" height="40" transform="translate(71)" fill="#6750A4" fill-opacity="0.08"/>
<path d="M94.4453 23.6875V25H87.7734V23.8721L91.0137 20.3379C91.3691 19.9368 91.6494 19.5905 91.8545 19.2988C92.0596 19.0072 92.2031 18.7451 92.2852 18.5127C92.3717 18.2757 92.415 18.0456 92.415 17.8223C92.415 17.5078 92.3558 17.2321 92.2373 16.9951C92.1234 16.7536 91.9548 16.5645 91.7314 16.4277C91.5081 16.2865 91.237 16.2158 90.918 16.2158C90.5488 16.2158 90.2389 16.2956 89.9883 16.4551C89.7376 16.6146 89.5485 16.8356 89.4209 17.1182C89.2933 17.3962 89.2295 17.7152 89.2295 18.0752H87.582C87.582 17.4964 87.7142 16.9678 87.9785 16.4893C88.2428 16.0062 88.6257 15.6234 89.127 15.3408C89.6283 15.0537 90.2321 14.9102 90.9385 14.9102C91.6038 14.9102 92.1689 15.0218 92.6338 15.2451C93.0986 15.4684 93.4518 15.7852 93.6934 16.1953C93.9395 16.6055 94.0625 17.0908 94.0625 17.6514C94.0625 17.9613 94.0124 18.2689 93.9121 18.5742C93.8118 18.8796 93.6683 19.1849 93.4814 19.4902C93.2992 19.791 93.0827 20.0941 92.832 20.3994C92.5814 20.7002 92.3057 21.0055 92.0049 21.3154L89.8516 23.6875H94.4453Z" fill="#0C51FF"/>
</g>
<rect x="71.5" y="0.5" width="39" height="39" rx="19.5" stroke="#79747E"/>
<g clip-path="url(#clip2_85_3804)">
<rect width="40" height="40" transform="translate(148)" fill="#6750A4" fill-opacity="0.08"/>
<path d="M166.708 19.2783H167.692C168.075 19.2783 168.392 19.2122 168.643 19.0801C168.898 18.9479 169.087 18.7656 169.21 18.5332C169.333 18.3008 169.395 18.0342 169.395 17.7334C169.395 17.4189 169.338 17.1501 169.224 16.9268C169.114 16.6989 168.946 16.5234 168.718 16.4004C168.494 16.2773 168.21 16.2158 167.863 16.2158C167.572 16.2158 167.307 16.2751 167.07 16.3936C166.838 16.5075 166.653 16.6715 166.517 16.8857C166.38 17.0954 166.312 17.346 166.312 17.6377H164.657C164.657 17.109 164.796 16.6396 165.074 16.2295C165.352 15.8193 165.73 15.498 166.209 15.2656C166.692 15.0286 167.234 14.9102 167.836 14.9102C168.479 14.9102 169.039 15.0173 169.518 15.2314C170.001 15.4411 170.377 15.7555 170.646 16.1748C170.914 16.5941 171.049 17.1136 171.049 17.7334C171.049 18.016 170.983 18.3031 170.851 18.5947C170.718 18.8864 170.522 19.153 170.263 19.3945C170.003 19.6315 169.679 19.8252 169.292 19.9756C168.905 20.1214 168.456 20.1943 167.945 20.1943H166.708V19.2783ZM166.708 20.5635V19.6611H167.945C168.529 19.6611 169.025 19.7295 169.436 19.8662C169.85 20.0029 170.188 20.1921 170.447 20.4336C170.707 20.6706 170.896 20.9417 171.015 21.2471C171.138 21.5524 171.199 21.876 171.199 22.2178C171.199 22.6826 171.115 23.0973 170.946 23.4619C170.782 23.8219 170.548 24.1273 170.242 24.3779C169.937 24.6286 169.579 24.8177 169.169 24.9453C168.763 25.0729 168.321 25.1367 167.843 25.1367C167.414 25.1367 167.004 25.0775 166.612 24.959C166.22 24.8405 165.869 24.665 165.56 24.4326C165.25 24.1956 165.004 23.9017 164.821 23.5508C164.644 23.1953 164.555 22.7852 164.555 22.3203H166.202C166.202 22.6165 166.271 22.8786 166.407 23.1064C166.549 23.3298 166.744 23.5052 166.995 23.6328C167.25 23.7604 167.542 23.8242 167.87 23.8242C168.216 23.8242 168.515 23.7627 168.766 23.6396C169.016 23.5166 169.208 23.3343 169.34 23.0928C169.477 22.8512 169.545 22.5596 169.545 22.2178C169.545 21.8304 169.47 21.516 169.319 21.2744C169.169 21.0329 168.955 20.8551 168.677 20.7412C168.399 20.6227 168.071 20.5635 167.692 20.5635H166.708Z" fill="#0C51FF"/>
</g>
<rect x="148.5" y="0.5" width="39" height="39" rx="19.5" stroke="#79747E"/>
<g clip-path="url(#clip3_85_3804)">
<rect width="40" height="40" transform="translate(219)" fill="#6750A4" fill-opacity="0.08"/>
<path d="M242.63 21.4521V22.7646H235.452L235.397 21.7734L239.69 15.0469H241.01L239.581 17.4941L237.113 21.4521H242.63ZM241.386 15.0469V25H239.738V15.0469H241.386Z" fill="#0C51FF"/>
</g>
<rect x="219.5" y="0.5" width="39" height="39" rx="19.5" stroke="#79747E"/>
<g clip-path="url(#clip4_85_3804)">
<rect x="290" width="40" height="40" rx="20" fill="#0C51FF"/>
<path d="M308.503 20.3721L307.19 20.0508L307.73 15.0469H313.097V16.4414H309.098L308.824 18.8818C308.979 18.7907 309.193 18.7018 309.467 18.6152C309.74 18.5241 310.052 18.4785 310.403 18.4785C310.873 18.4785 311.292 18.556 311.661 18.7109C312.035 18.8613 312.352 19.0824 312.611 19.374C312.871 19.6611 313.069 20.012 313.206 20.4268C313.343 20.8369 313.411 21.2995 313.411 21.8145C313.411 22.2747 313.343 22.7054 313.206 23.1064C313.074 23.5075 312.873 23.8607 312.604 24.166C312.336 24.4714 311.996 24.7106 311.586 24.8838C311.18 25.0524 310.7 25.1367 310.144 25.1367C309.729 25.1367 309.33 25.0775 308.947 24.959C308.569 24.8359 308.229 24.6559 307.929 24.4189C307.628 24.1774 307.386 23.8812 307.204 23.5303C307.022 23.1748 306.917 22.7669 306.89 22.3066H308.503C308.544 22.6302 308.633 22.9059 308.77 23.1338C308.911 23.3571 309.098 23.528 309.33 23.6465C309.562 23.765 309.831 23.8242 310.137 23.8242C310.415 23.8242 310.654 23.7764 310.854 23.6807C311.055 23.5804 311.221 23.4391 311.354 23.2568C311.49 23.07 311.59 22.8512 311.654 22.6006C311.723 22.3499 311.757 22.0719 311.757 21.7666C311.757 21.4749 311.718 21.2083 311.641 20.9668C311.568 20.7253 311.456 20.5156 311.306 20.3379C311.16 20.1602 310.975 20.0234 310.752 19.9277C310.529 19.8275 310.271 19.7773 309.979 19.7773C309.588 19.7773 309.287 19.8343 309.077 19.9482C308.872 20.0622 308.681 20.2035 308.503 20.3721Z" fill="#FEF7FF"/>
</g>
<rect x="290.5" y="0.5" width="39" height="39" rx="19.5" stroke="#79747E"/>
<defs>
<clipPath id="clip0_85_3804">
<rect width="40" height="40" rx="20" fill="white"/>
</clipPath>
<clipPath id="clip1_85_3804">
<rect x="71" width="40" height="40" rx="20" fill="white"/>
</clipPath>
<clipPath id="clip2_85_3804">
<rect x="148" width="40" height="40" rx="20" fill="white"/>
</clipPath>
<clipPath id="clip3_85_3804">
<rect x="219" width="40" height="40" rx="20" fill="white"/>
</clipPath>
<clipPath id="clip4_85_3804">
<rect x="290" width="40" height="40" rx="20" fill="white"/>
</clipPath>
</defs>
</svg>
