<svg xmlns="http://www.w3.org/2000/svg" xmlns:xlink="http://www.w3.org/1999/xlink" width="50" zoomAndPan="magnify" viewBox="0 0 37.5 37.499999" height="50" preserveAspectRatio="xMidYMid meet" version="1.0"><defs><clipPath id="bcdd12132f"><path d="M 4.847656 6 L 24 6 L 24 30 L 4.847656 30 Z M 4.847656 6 " clip-rule="nonzero"/></clipPath><clipPath id="ada77afa3a"><path d="M 10 4.863281 L 19 4.863281 L 19 10 L 10 10 Z M 10 4.863281 " clip-rule="nonzero"/></clipPath><clipPath id="87b03a89a2"><path d="M 19 6 L 32.230469 6 L 32.230469 19 L 19 19 Z M 19 6 " clip-rule="nonzero"/></clipPath><clipPath id="6289faf233"><path d="M 25 6 L 32.230469 6 L 32.230469 19 L 25 19 Z M 25 6 " clip-rule="nonzero"/></clipPath><clipPath id="e32fb5c2e9"><path d="M 26 26 L 32.230469 26 L 32.230469 32.246094 L 26 32.246094 Z M 26 26 " clip-rule="nonzero"/></clipPath><clipPath id="a27b5960a5"><path d="M 28 26 L 32.230469 26 L 32.230469 32.246094 L 28 32.246094 Z M 28 26 " clip-rule="nonzero"/></clipPath></defs><g clip-path="url(#bcdd12132f)"><path fill="#837683" d="M 22.847656 6.789062 C 23.449219 6.789062 23.945312 7.28125 23.945312 7.886719 L 23.945312 28.109375 C 23.945312 28.714844 23.449219 29.207031 22.847656 29.207031 L 5.945312 29.207031 C 5.339844 29.207031 4.847656 28.714844 4.847656 28.109375 L 4.847656 7.886719 C 4.847656 7.28125 5.339844 6.789062 5.945312 6.789062 Z M 22.847656 6.789062 " fill-opacity="1" fill-rule="evenodd"/></g><path fill="#685e68" d="M 22.847656 6.789062 C 23.449219 6.789062 23.945312 7.28125 23.945312 7.886719 L 23.945312 28.109375 C 23.945312 28.714844 23.449219 29.207031 22.847656 29.207031 L 21.519531 29.207031 L 21.519531 6.789062 Z M 22.847656 6.789062 " fill-opacity="1" fill-rule="evenodd"/><path fill="#eceff1" d="M 21.921875 8.316406 L 6.867188 8.316406 C 6.597656 8.316406 6.375 8.539062 6.375 8.8125 L 6.375 27.179688 C 6.375 27.457031 6.597656 27.679688 6.867188 27.679688 L 21.921875 27.679688 C 22.195312 27.679688 22.417969 27.457031 22.417969 27.179688 L 22.417969 8.8125 C 22.417969 8.539062 22.195312 8.316406 21.921875 8.316406 Z M 21.921875 8.316406 " fill-opacity="1" fill-rule="evenodd"/><path fill="#d1d1d6" d="M 21.921875 8.316406 L 21.519531 8.316406 L 21.519531 27.679688 L 21.921875 27.679688 C 22.195312 27.679688 22.417969 27.457031 22.417969 27.179688 L 22.417969 8.8125 C 22.417969 8.539062 22.195312 8.316406 21.921875 8.316406 Z M 21.921875 8.316406 " fill-opacity="1" fill-rule="evenodd"/><g clip-path="url(#ada77afa3a)"><path fill="#e3a76f" d="M 10.664062 6.292969 L 12.582031 6.292969 C 12.777344 5.472656 13.515625 4.863281 14.394531 4.863281 C 15.273438 4.863281 16.011719 5.472656 16.207031 6.292969 L 18.125 6.292969 C 18.398438 6.292969 18.621094 6.515625 18.621094 6.789062 L 18.621094 8.652344 C 18.621094 8.925781 18.398438 9.148438 18.125 9.148438 L 10.664062 9.148438 C 10.390625 9.148438 10.171875 8.925781 10.171875 8.652344 L 10.171875 6.789062 C 10.171875 6.515625 10.390625 6.292969 10.664062 6.292969 Z M 10.664062 6.292969 " fill-opacity="1" fill-rule="evenodd"/></g><path fill="#eceff1" d="M 14.394531 6.894531 C 14.667969 6.894531 14.890625 6.671875 14.890625 6.402344 C 14.890625 6.128906 14.667969 5.90625 14.394531 5.90625 C 14.125 5.90625 13.902344 6.128906 13.902344 6.402344 C 13.902344 6.671875 14.125 6.894531 14.394531 6.894531 Z M 14.394531 6.894531 " fill-opacity="1" fill-rule="evenodd"/><path fill="#c48958" d="M 18.125 6.292969 C 18.398438 6.292969 18.621094 6.515625 18.621094 6.789062 L 18.621094 8.652344 C 18.621094 8.925781 18.398438 9.148438 18.125 9.148438 L 10.664062 9.148438 C 10.390625 9.148438 10.171875 8.925781 10.171875 8.652344 L 17.628906 8.652344 C 17.902344 8.652344 18.125 8.429688 18.125 8.15625 Z M 18.125 6.292969 " fill-opacity="1" fill-rule="evenodd"/><path fill="#8ac9fe" d="M 8.882812 11.386719 L 11.628906 11.386719 C 11.824219 11.386719 11.984375 11.546875 11.984375 11.746094 L 11.984375 14.492188 C 11.984375 14.691406 11.824219 14.851562 11.628906 14.851562 L 8.882812 14.851562 C 8.683594 14.851562 8.523438 14.691406 8.523438 14.492188 L 8.523438 11.746094 C 8.523438 11.546875 8.683594 11.386719 8.882812 11.386719 Z M 8.882812 11.386719 " fill-opacity="1" fill-rule="evenodd"/><path fill="#60b7ff" d="M 11.046875 11.386719 L 11.628906 11.386719 C 11.824219 11.386719 11.984375 11.546875 11.984375 11.746094 L 11.984375 14.492188 C 11.984375 14.691406 11.824219 14.851562 11.628906 14.851562 L 11.046875 14.851562 C 11.242188 14.851562 11.40625 14.691406 11.40625 14.492188 L 11.40625 11.746094 C 11.40625 11.546875 11.242188 11.386719 11.046875 11.386719 Z M 11.046875 11.386719 " fill-opacity="1" fill-rule="evenodd"/><path fill="#ffe177" d="M 9 16.75 L 11.746094 16.75 C 11.941406 16.75 12.105469 16.914062 12.105469 17.109375 L 12.105469 19.859375 C 12.105469 20.054688 11.941406 20.21875 11.746094 20.21875 L 9 20.21875 C 8.804688 20.21875 8.640625 20.054688 8.640625 19.859375 L 8.640625 17.109375 C 8.640625 16.914062 8.804688 16.75 9 16.75 Z M 9 16.75 " fill-opacity="1" fill-rule="evenodd"/><path fill="#ffd064" d="M 11.164062 16.75 L 11.746094 16.75 C 11.941406 16.75 12.105469 16.914062 12.105469 17.109375 L 12.105469 19.859375 C 12.105469 20.054688 11.941406 20.21875 11.746094 20.21875 L 11.164062 20.21875 C 11.363281 20.21875 11.523438 20.054688 11.523438 19.859375 L 11.523438 17.109375 C 11.523438 16.914062 11.363281 16.75 11.164062 16.75 Z M 11.164062 16.75 " fill-opacity="1" fill-rule="evenodd"/><path fill="#fe646f" d="M 9 22.035156 L 11.746094 22.035156 C 11.941406 22.035156 12.105469 22.195312 12.105469 22.394531 L 12.105469 25.140625 C 12.105469 25.339844 11.941406 25.5 11.746094 25.5 L 9 25.5 C 8.804688 25.5 8.640625 25.339844 8.640625 25.140625 L 8.640625 22.394531 C 8.640625 22.195312 8.804688 22.035156 9 22.035156 Z M 9 22.035156 " fill-opacity="1" fill-rule="evenodd"/><path fill="#fd4755" d="M 11.164062 22.035156 L 11.746094 22.035156 C 11.941406 22.035156 12.105469 22.195312 12.105469 22.394531 L 12.105469 25.140625 C 12.105469 25.339844 11.941406 25.5 11.746094 25.5 L 11.164062 25.5 C 11.363281 25.5 11.523438 25.339844 11.523438 25.140625 L 11.523438 22.394531 C 11.523438 22.195312 11.363281 22.035156 11.164062 22.035156 Z M 11.164062 22.035156 " fill-opacity="1" fill-rule="evenodd"/><path fill="#a79ba7" d="M 14.570312 12.742188 C 14.316406 12.742188 14.113281 12.539062 14.113281 12.285156 C 14.113281 12.035156 14.316406 11.832031 14.570312 11.832031 L 19.054688 11.832031 C 19.304688 11.832031 19.507812 12.035156 19.507812 12.285156 C 19.507812 12.539062 19.304688 12.742188 19.054688 12.742188 Z M 14.570312 14.453125 C 14.316406 14.453125 14.113281 14.25 14.113281 13.996094 C 14.113281 13.746094 14.316406 13.542969 14.570312 13.542969 L 16.8125 13.542969 C 17.0625 13.542969 17.265625 13.746094 17.265625 13.996094 C 17.265625 14.25 17.0625 14.453125 16.8125 14.453125 Z M 14.570312 17.542969 C 14.316406 17.542969 14.113281 17.335938 14.113281 17.085938 C 14.113281 16.835938 14.316406 16.628906 14.570312 16.628906 L 19.054688 16.628906 C 19.304688 16.628906 19.507812 16.835938 19.507812 17.085938 C 19.507812 17.335938 19.304688 17.542969 19.054688 17.542969 Z M 14.570312 19.253906 C 14.316406 19.253906 14.113281 19.050781 14.113281 18.796875 C 14.113281 18.546875 14.316406 18.339844 14.570312 18.339844 L 16.8125 18.339844 C 17.0625 18.339844 17.265625 18.546875 17.265625 18.796875 C 17.265625 19.050781 17.0625 19.253906 16.8125 19.253906 Z M 14.570312 23.425781 C 14.316406 23.425781 14.113281 23.222656 14.113281 22.972656 C 14.113281 22.71875 14.316406 22.515625 14.570312 22.515625 L 19.054688 22.515625 C 19.304688 22.515625 19.507812 22.71875 19.507812 22.972656 C 19.507812 23.222656 19.304688 23.425781 19.054688 23.425781 Z M 14.570312 25.136719 C 14.316406 25.136719 14.113281 24.933594 14.113281 24.683594 C 14.113281 24.429688 14.316406 24.226562 14.570312 24.226562 L 16.8125 24.226562 C 17.0625 24.226562 17.265625 24.429688 17.265625 24.683594 C 17.265625 24.933594 17.0625 25.136719 16.8125 25.136719 Z M 14.570312 25.136719 " fill-opacity="1" fill-rule="evenodd"/><g clip-path="url(#87b03a89a2)"><path fill="#ffe177" d="M 27.015625 7.601562 C 26.726562 7.105469 26.214844 6.808594 25.644531 6.808594 C 25.070312 6.808594 24.558594 7.105469 24.269531 7.601562 L 19.34375 16.148438 C 19.054688 16.644531 19.054688 17.238281 19.34375 17.734375 C 19.628906 18.230469 20.140625 18.527344 20.714844 18.527344 L 30.570312 18.527344 C 31.144531 18.527344 31.65625 18.230469 31.941406 17.734375 C 32.230469 17.238281 32.230469 16.644531 31.941406 16.148438 Z M 27.015625 7.601562 " fill-opacity="1" fill-rule="evenodd"/></g><g clip-path="url(#6289faf233)"><path fill="#ffd064" d="M 27.015625 7.601562 C 26.726562 7.105469 26.214844 6.808594 25.644531 6.808594 C 25.527344 6.808594 25.417969 6.820312 25.308594 6.84375 C 25.742188 6.933594 26.117188 7.203125 26.347656 7.601562 L 31.277344 16.148438 C 31.5625 16.644531 31.5625 17.238281 31.277344 17.734375 C 30.988281 18.230469 30.476562 18.527344 29.902344 18.527344 L 30.570312 18.527344 C 31.144531 18.527344 31.65625 18.230469 31.941406 17.734375 C 32.230469 17.238281 32.230469 16.644531 31.941406 16.148438 Z M 27.015625 7.601562 " fill-opacity="1" fill-rule="evenodd"/></g><path fill="#fe646f" d="M 25.644531 16.046875 C 26.058594 16.046875 26.398438 16.386719 26.398438 16.804688 C 26.398438 17.222656 26.058594 17.558594 25.644531 17.558594 C 25.226562 17.558594 24.886719 17.222656 24.886719 16.804688 C 24.886719 16.386719 25.226562 16.046875 25.644531 16.046875 Z M 25.644531 14.699219 C 25.324219 14.699219 25.066406 14.449219 25.054688 14.132812 L 24.90625 10.003906 C 24.898438 9.835938 24.953125 9.691406 25.070312 9.570312 C 25.183594 9.449219 25.328125 9.390625 25.492188 9.390625 L 25.789062 9.390625 C 25.957031 9.390625 26.101562 9.449219 26.214844 9.570312 C 26.332031 9.691406 26.386719 9.835938 26.378906 10.003906 L 26.230469 14.132812 C 26.21875 14.449219 25.960938 14.699219 25.644531 14.699219 Z M 25.644531 14.699219 " fill-opacity="1" fill-rule="evenodd"/><path fill="#a79ba7" d="M 25.847656 24.988281 C 25.570312 25.386719 25.242188 25.746094 24.875 26.0625 L 27.519531 28.660156 L 28.527344 27.621094 Z M 25.847656 24.988281 " fill-opacity="1" fill-rule="evenodd"/><path fill="#837683" d="M 25.863281 24.972656 C 25.8125 25.140625 25.714844 25.269531 25.578125 25.359375 L 28.207031 27.972656 L 28.527344 27.621094 Z M 25.863281 24.972656 " fill-opacity="1" fill-rule="evenodd"/><g clip-path="url(#e32fb5c2e9)"><path fill="#f1ba84" d="M 30.871094 32.035156 L 32.011719 30.859375 C 32.210938 30.652344 32.207031 30.320312 32 30.121094 L 28.847656 27.058594 C 28.644531 26.859375 28.3125 26.867188 28.109375 27.070312 L 26.972656 28.246094 C 26.773438 28.449219 26.777344 28.78125 26.984375 28.984375 L 30.136719 32.042969 C 30.339844 32.242188 30.671875 32.238281 30.871094 32.035156 Z M 30.871094 32.035156 " fill-opacity="1" fill-rule="evenodd"/></g><g clip-path="url(#a27b5960a5)"><path fill="#e3a76f" d="M 28.382812 27.058594 L 31.535156 30.121094 C 31.738281 30.320312 31.742188 30.652344 31.542969 30.859375 L 30.40625 32.035156 C 30.363281 32.074219 30.316406 32.109375 30.265625 32.136719 C 30.464844 32.234375 30.710938 32.199219 30.871094 32.035156 L 32.011719 30.859375 C 32.210938 30.652344 32.207031 30.320312 32 30.121094 L 28.847656 27.058594 C 28.6875 26.902344 28.445312 26.871094 28.253906 26.96875 C 28.300781 26.992188 28.34375 27.023438 28.382812 27.058594 Z M 28.382812 27.058594 " fill-opacity="1" fill-rule="evenodd"/></g><path fill="#8ac9fe" d="M 21.546875 16.351562 C 24.714844 16.351562 27.285156 18.925781 27.285156 22.097656 C 27.285156 25.269531 24.714844 27.839844 21.546875 27.839844 C 18.378906 27.839844 15.8125 25.269531 15.8125 22.097656 C 15.8125 18.925781 18.378906 16.351562 21.546875 16.351562 Z M 21.546875 16.351562 " fill-opacity="1" fill-rule="evenodd"/><path fill="#60b7ff" d="M 21.546875 16.351562 C 24.714844 16.351562 27.285156 18.925781 27.285156 22.097656 C 27.285156 25.269531 24.714844 27.839844 21.546875 27.839844 C 21.453125 27.839844 21.363281 27.839844 21.269531 27.835938 C 24.308594 27.6875 26.726562 25.175781 26.726562 22.097656 C 26.726562 19.019531 24.308594 16.503906 21.269531 16.359375 C 21.363281 16.355469 21.453125 16.351562 21.546875 16.351562 Z M 21.546875 16.351562 " fill-opacity="1" fill-rule="evenodd"/><path fill="#eceff1" d="M 21.546875 17.664062 C 23.992188 17.664062 25.976562 19.648438 25.976562 22.097656 C 25.976562 24.542969 23.992188 26.53125 21.546875 26.53125 C 19.101562 26.53125 17.121094 24.542969 17.121094 22.097656 C 17.121094 19.648438 19.101562 17.664062 21.546875 17.664062 Z M 21.546875 17.664062 " fill-opacity="1" fill-rule="evenodd"/><path fill="#d1d1d6" d="M 21.546875 17.664062 C 21.648438 17.664062 21.746094 17.667969 21.847656 17.675781 C 19.542969 17.828125 17.71875 19.75 17.71875 22.097656 C 17.71875 24.445312 19.542969 26.367188 21.847656 26.519531 C 21.746094 26.527344 21.648438 26.53125 21.546875 26.53125 C 19.101562 26.53125 17.121094 24.546875 17.121094 22.097656 C 17.121094 19.648438 19.101562 17.664062 21.546875 17.664062 Z M 21.546875 17.664062 " fill-opacity="1" fill-rule="evenodd"/></svg>