<svg width="281" height="228" viewBox="0 0 281 228" fill="none" xmlns="http://www.w3.org/2000/svg">
<path d="M75.2852 9.9375V27H73.0586V9.9375H75.2852ZM80.7695 9.9375V11.7891H67.5859V9.9375H80.7695ZM85.3281 14.3203V27H83.1484V14.3203H85.3281ZM82.9844 10.957C82.9844 10.6055 83.0898 10.3086 83.3008 10.0664C83.5195 9.82422 83.8398 9.70312 84.2617 9.70312C84.6758 9.70312 84.9922 9.82422 85.2109 10.0664C85.4375 10.3086 85.5508 10.6055 85.5508 10.957C85.5508 11.293 85.4375 11.582 85.2109 11.8242C84.9922 12.0586 84.6758 12.1758 84.2617 12.1758C83.8398 12.1758 83.5195 12.0586 83.3008 11.8242C83.0898 11.582 82.9844 11.293 82.9844 10.957ZM96.8008 24.5391V9H98.9805V27H96.9883L96.8008 24.5391ZM88.2695 20.8008V20.5547C88.2695 19.5859 88.3867 18.707 88.6211 17.918C88.8633 17.1211 89.2031 16.4375 89.6406 15.8672C90.0859 15.2969 90.6133 14.8594 91.2227 14.5547C91.8398 14.2422 92.5273 14.0859 93.2852 14.0859C94.082 14.0859 94.7773 14.2266 95.3711 14.5078C95.9727 14.7812 96.4805 15.1836 96.8945 15.7148C97.3164 16.2383 97.6484 16.8711 97.8906 17.6133C98.1328 18.3555 98.3008 19.1953 98.3945 20.1328V21.2109C98.3086 22.1406 98.1406 22.9766 97.8906 23.7188C97.6484 24.4609 97.3164 25.0938 96.8945 25.6172C96.4805 26.1406 95.9727 26.543 95.3711 26.8242C94.7695 27.0977 94.0664 27.2344 93.2617 27.2344C92.5195 27.2344 91.8398 27.0742 91.2227 26.7539C90.6133 26.4336 90.0859 25.9844 89.6406 25.4062C89.2031 24.8281 88.8633 24.1484 88.6211 23.3672C88.3867 22.5781 88.2695 21.7227 88.2695 20.8008ZM90.4492 20.5547V20.8008C90.4492 21.4336 90.5117 22.0273 90.6367 22.582C90.7695 23.1367 90.9727 23.625 91.2461 24.0469C91.5195 24.4688 91.8672 24.8008 92.2891 25.043C92.7109 25.2773 93.2148 25.3945 93.8008 25.3945C94.5195 25.3945 95.1094 25.2422 95.5703 24.9375C96.0391 24.6328 96.4141 24.2305 96.6953 23.7305C96.9766 23.2305 97.1953 22.6875 97.3516 22.1016V19.2773C97.2578 18.8477 97.1211 18.4336 96.9414 18.0352C96.7695 17.6289 96.543 17.2695 96.2617 16.957C95.9883 16.6367 95.6484 16.3828 95.2422 16.1953C94.8438 16.0078 94.3711 15.9141 93.8242 15.9141C93.2305 15.9141 92.7188 16.0391 92.2891 16.2891C91.8672 16.5312 91.5195 16.8672 91.2461 17.2969C90.9727 17.7188 90.7695 18.2109 90.6367 18.7734C90.5117 19.3281 90.4492 19.9219 90.4492 20.5547ZM109.832 24.832V18.3047C109.832 17.8047 109.73 17.3711 109.527 17.0039C109.332 16.6289 109.035 16.3398 108.637 16.1367C108.238 15.9336 107.746 15.832 107.16 15.832C106.613 15.832 106.133 15.9258 105.719 16.1133C105.312 16.3008 104.992 16.5469 104.758 16.8516C104.531 17.1562 104.418 17.4844 104.418 17.8359H102.25C102.25 17.3828 102.367 16.9336 102.602 16.4883C102.836 16.043 103.172 15.6406 103.609 15.2812C104.055 14.9141 104.586 14.625 105.203 14.4141C105.828 14.1953 106.523 14.0859 107.289 14.0859C108.211 14.0859 109.023 14.2422 109.727 14.5547C110.438 14.8672 110.992 15.3398 111.391 15.9727C111.797 16.5977 112 17.3828 112 18.3281V24.2344C112 24.6562 112.035 25.1055 112.105 25.582C112.184 26.0586 112.297 26.4688 112.445 26.8125V27H110.184C110.074 26.75 109.988 26.418 109.926 26.0039C109.863 25.582 109.832 25.1914 109.832 24.832ZM110.207 19.3125L110.23 20.8359H108.039C107.422 20.8359 106.871 20.8867 106.387 20.9883C105.902 21.082 105.496 21.2266 105.168 21.4219C104.84 21.6172 104.59 21.8633 104.418 22.1602C104.246 22.4492 104.16 22.7891 104.16 23.1797C104.16 23.5781 104.25 23.9414 104.43 24.2695C104.609 24.5977 104.879 24.8594 105.238 25.0547C105.605 25.2422 106.055 25.3359 106.586 25.3359C107.25 25.3359 107.836 25.1953 108.344 24.9141C108.852 24.6328 109.254 24.2891 109.551 23.8828C109.855 23.4766 110.02 23.082 110.043 22.6992L110.969 23.7422C110.914 24.0703 110.766 24.4336 110.523 24.832C110.281 25.2305 109.957 25.6133 109.551 25.9805C109.152 26.3398 108.676 26.6406 108.121 26.8828C107.574 27.1172 106.957 27.2344 106.27 27.2344C105.41 27.2344 104.656 27.0664 104.008 26.7305C103.367 26.3945 102.867 25.9453 102.508 25.3828C102.156 24.8125 101.98 24.1758 101.98 23.4727C101.98 22.793 102.113 22.1953 102.379 21.6797C102.645 21.1562 103.027 20.7227 103.527 20.3789C104.027 20.0273 104.629 19.7617 105.332 19.582C106.035 19.4023 106.82 19.3125 107.688 19.3125H110.207ZM117.59 9V27H115.41V9H117.59ZM125.336 14.3203L119.805 20.2383L116.711 23.4492L116.535 21.1406L118.75 18.4922L122.688 14.3203H125.336ZM123.355 27L118.832 20.9531L119.957 19.0195L125.91 27H123.355ZM142.949 22.6875C142.949 22.2891 142.887 21.9375 142.762 21.6328C142.645 21.3203 142.434 21.0391 142.129 20.7891C141.832 20.5391 141.418 20.3008 140.887 20.0742C140.363 19.8477 139.699 19.6172 138.895 19.3828C138.051 19.1328 137.289 18.8555 136.609 18.5508C135.93 18.2383 135.348 17.8828 134.863 17.4844C134.379 17.0859 134.008 16.6289 133.75 16.1133C133.492 15.5977 133.363 15.0078 133.363 14.3438C133.363 13.6797 133.5 13.0664 133.773 12.5039C134.047 11.9414 134.438 11.4531 134.945 11.0391C135.461 10.6172 136.074 10.2891 136.785 10.0547C137.496 9.82031 138.289 9.70312 139.164 9.70312C140.445 9.70312 141.531 9.94922 142.422 10.4414C143.32 10.9258 144.004 11.5625 144.473 12.3516C144.941 13.1328 145.176 13.9688 145.176 14.8594H142.926C142.926 14.2188 142.789 13.6523 142.516 13.1602C142.242 12.6602 141.828 12.2695 141.273 11.9883C140.719 11.6992 140.016 11.5547 139.164 11.5547C138.359 11.5547 137.695 11.6758 137.172 11.918C136.648 12.1602 136.258 12.4883 136 12.9023C135.75 13.3164 135.625 13.7891 135.625 14.3203C135.625 14.6797 135.699 15.0078 135.848 15.3047C136.004 15.5938 136.242 15.8633 136.562 16.1133C136.891 16.3633 137.305 16.5938 137.805 16.8047C138.312 17.0156 138.918 17.2188 139.621 17.4141C140.59 17.6875 141.426 17.9922 142.129 18.3281C142.832 18.6641 143.41 19.043 143.863 19.4648C144.324 19.8789 144.664 20.3516 144.883 20.8828C145.109 21.4062 145.223 22 145.223 22.6641C145.223 23.3594 145.082 23.9883 144.801 24.5508C144.52 25.1133 144.117 25.5938 143.594 25.9922C143.07 26.3906 142.441 26.6992 141.707 26.918C140.98 27.1289 140.168 27.2344 139.27 27.2344C138.48 27.2344 137.703 27.125 136.938 26.9062C136.18 26.6875 135.488 26.3594 134.863 25.9219C134.246 25.4844 133.75 24.9453 133.375 24.3047C133.008 23.6562 132.824 22.9062 132.824 22.0547H135.074C135.074 22.6406 135.188 23.1445 135.414 23.5664C135.641 23.9805 135.949 24.3242 136.34 24.5977C136.738 24.8711 137.188 25.0742 137.688 25.207C138.195 25.332 138.723 25.3945 139.27 25.3945C140.059 25.3945 140.727 25.2852 141.273 25.0664C141.82 24.8477 142.234 24.5352 142.516 24.1289C142.805 23.7227 142.949 23.2422 142.949 22.6875ZM153.039 27.2344C152.156 27.2344 151.355 27.0859 150.637 26.7891C149.926 26.4844 149.312 26.0586 148.797 25.5117C148.289 24.9648 147.898 24.3164 147.625 23.5664C147.352 22.8164 147.215 21.9961 147.215 21.1055V20.6133C147.215 19.582 147.367 18.6641 147.672 17.8594C147.977 17.0469 148.391 16.3594 148.914 15.7969C149.438 15.2344 150.031 14.8086 150.695 14.5195C151.359 14.2305 152.047 14.0859 152.758 14.0859C153.664 14.0859 154.445 14.2422 155.102 14.5547C155.766 14.8672 156.309 15.3047 156.73 15.8672C157.152 16.4219 157.465 17.0781 157.668 17.8359C157.871 18.5859 157.973 19.4062 157.973 20.2969V21.2695H148.504V19.5H155.805V19.3359C155.773 18.7734 155.656 18.2266 155.453 17.6953C155.258 17.1641 154.945 16.7266 154.516 16.3828C154.086 16.0391 153.5 15.8672 152.758 15.8672C152.266 15.8672 151.812 15.9727 151.398 16.1836C150.984 16.3867 150.629 16.6914 150.332 17.0977C150.035 17.5039 149.805 18 149.641 18.5859C149.477 19.1719 149.395 19.8477 149.395 20.6133V21.1055C149.395 21.707 149.477 22.2734 149.641 22.8047C149.812 23.3281 150.059 23.7891 150.379 24.1875C150.707 24.5859 151.102 24.8984 151.562 25.125C152.031 25.3516 152.562 25.4648 153.156 25.4648C153.922 25.4648 154.57 25.3086 155.102 24.9961C155.633 24.6836 156.098 24.2656 156.496 23.7422L157.809 24.7852C157.535 25.1992 157.188 25.5938 156.766 25.9688C156.344 26.3438 155.824 26.6484 155.207 26.8828C154.598 27.1172 153.875 27.2344 153.039 27.2344ZM165.812 14.3203V15.9844H158.957V14.3203H165.812ZM161.277 11.2383H163.445V23.8594C163.445 24.2891 163.512 24.6133 163.645 24.832C163.777 25.0508 163.949 25.1953 164.16 25.2656C164.371 25.3359 164.598 25.3711 164.84 25.3711C165.02 25.3711 165.207 25.3555 165.402 25.3242C165.605 25.2852 165.758 25.2539 165.859 25.2305L165.871 27C165.699 27.0547 165.473 27.1055 165.191 27.1523C164.918 27.207 164.586 27.2344 164.195 27.2344C163.664 27.2344 163.176 27.1289 162.73 26.918C162.285 26.707 161.93 26.3555 161.664 25.8633C161.406 25.3633 161.277 24.6914 161.277 23.8477V11.2383ZM176.113 24.0703V14.3203H178.293V27H176.219L176.113 24.0703ZM176.523 21.3984L177.426 21.375C177.426 22.2188 177.336 23 177.156 23.7188C176.984 24.4297 176.703 25.0469 176.312 25.5703C175.922 26.0938 175.41 26.5039 174.777 26.8008C174.145 27.0898 173.375 27.2344 172.469 27.2344C171.852 27.2344 171.285 27.1445 170.77 26.9648C170.262 26.7852 169.824 26.5078 169.457 26.1328C169.09 25.7578 168.805 25.2695 168.602 24.668C168.406 24.0664 168.309 23.3438 168.309 22.5V14.3203H170.477V22.5234C170.477 23.0938 170.539 23.5664 170.664 23.9414C170.797 24.3086 170.973 24.6016 171.191 24.8203C171.418 25.0312 171.668 25.1797 171.941 25.2656C172.223 25.3516 172.512 25.3945 172.809 25.3945C173.73 25.3945 174.461 25.2188 175 24.8672C175.539 24.5078 175.926 24.0273 176.16 23.4258C176.402 22.8164 176.523 22.1406 176.523 21.3984ZM181.656 14.3203H183.836V28.5117C183.836 29.2852 183.711 29.9414 183.461 30.4805C183.219 31.0195 182.852 31.4258 182.359 31.6992C181.875 31.9805 181.262 32.1211 180.52 32.1211C180.324 32.1211 180.098 32.1016 179.84 32.0625C179.574 32.0234 179.352 31.9766 179.172 31.9219L179.184 30.1758C179.332 30.207 179.5 30.2305 179.688 30.2461C179.875 30.2695 180.039 30.2812 180.18 30.2812C180.5 30.2812 180.77 30.2227 180.988 30.1055C181.207 29.9883 181.371 29.8008 181.48 29.543C181.598 29.2852 181.656 28.9414 181.656 28.5117V14.3203ZM181.434 10.957C181.434 10.6055 181.543 10.3086 181.762 10.0664C181.98 9.82422 182.297 9.70312 182.711 9.70312C183.133 9.70312 183.453 9.82422 183.672 10.0664C183.891 10.3086 184 10.6055 184 10.957C184 11.293 183.891 11.582 183.672 11.8242C183.453 12.0586 183.133 12.1758 182.711 12.1758C182.297 12.1758 181.98 12.0586 181.762 11.8242C181.543 11.582 181.434 11.293 181.434 10.957ZM195.098 24.0703V14.3203H197.277V27H195.203L195.098 24.0703ZM195.508 21.3984L196.41 21.375C196.41 22.2188 196.32 23 196.141 23.7188C195.969 24.4297 195.688 25.0469 195.297 25.5703C194.906 26.0938 194.395 26.5039 193.762 26.8008C193.129 27.0898 192.359 27.2344 191.453 27.2344C190.836 27.2344 190.27 27.1445 189.754 26.9648C189.246 26.7852 188.809 26.5078 188.441 26.1328C188.074 25.7578 187.789 25.2695 187.586 24.668C187.391 24.0664 187.293 23.3438 187.293 22.5V14.3203H189.461V22.5234C189.461 23.0938 189.523 23.5664 189.648 23.9414C189.781 24.3086 189.957 24.6016 190.176 24.8203C190.402 25.0312 190.652 25.1797 190.926 25.2656C191.207 25.3516 191.496 25.3945 191.793 25.3945C192.715 25.3945 193.445 25.2188 193.984 24.8672C194.523 24.5078 194.91 24.0273 195.145 23.4258C195.387 22.8164 195.508 22.1406 195.508 21.3984Z" fill="black"/>
<g clip-path="url(#clip0_573_2270)">
<rect width="40" height="40" fill="#6750A4" fill-opacity="0.08"/>
<path d="M21.2715 15.0127V25H19.624V16.9678L17.1836 17.7949V16.4346L21.0732 15.0127H21.2715Z" fill="#0C51FF"/>
</g>
<rect x="0.5" y="0.5" width="39" height="39" rx="19.5" stroke="#79747E"/>
<path d="M75.2969 58.4492L69.6484 74H67.3398L73.8438 56.9375H75.332L75.2969 58.4492ZM80.0312 74L74.3711 58.4492L74.3359 56.9375H75.8242L82.3516 74H80.0312ZM79.7383 67.6836V69.5352H70.1523V67.6836H79.7383ZM92.5234 61.3203H94.4922V73.7305C94.4922 74.8477 94.2656 75.8008 93.8125 76.5898C93.3594 77.3789 92.7266 77.9766 91.9141 78.3828C91.1094 78.7969 90.1797 79.0039 89.125 79.0039C88.6875 79.0039 88.1719 78.9336 87.5781 78.793C86.9922 78.6602 86.4141 78.4297 85.8438 78.1016C85.2812 77.7812 84.8086 77.3477 84.4258 76.8008L85.5625 75.5117C86.0938 76.1523 86.6484 76.5977 87.2266 76.8477C87.8125 77.0977 88.3906 77.2227 88.9609 77.2227C89.6484 77.2227 90.2422 77.0938 90.7422 76.8359C91.2422 76.5781 91.6289 76.1953 91.9023 75.6875C92.1836 75.1875 92.3242 74.5703 92.3242 73.8359V64.1094L92.5234 61.3203ZM83.793 67.8008V67.5547C83.793 66.5859 83.9062 65.707 84.1328 64.918C84.3672 64.1211 84.6992 63.4375 85.1289 62.8672C85.5664 62.2969 86.0938 61.8594 86.7109 61.5547C87.3281 61.2422 88.0234 61.0859 88.7969 61.0859C89.5938 61.0859 90.2891 61.2266 90.8828 61.5078C91.4844 61.7812 91.9922 62.1836 92.4062 62.7148C92.8281 63.2383 93.1602 63.8711 93.4023 64.6133C93.6445 65.3555 93.8125 66.1953 93.9062 67.1328V68.2109C93.8203 69.1406 93.6523 69.9766 93.4023 70.7188C93.1602 71.4609 92.8281 72.0938 92.4062 72.6172C91.9922 73.1406 91.4844 73.543 90.8828 73.8242C90.2812 74.0977 89.5781 74.2344 88.7734 74.2344C88.0156 74.2344 87.3281 74.0742 86.7109 73.7539C86.1016 73.4336 85.5781 72.9844 85.1406 72.4062C84.7031 71.8281 84.3672 71.1484 84.1328 70.3672C83.9062 69.5781 83.793 68.7227 83.793 67.8008ZM85.9609 67.5547V67.8008C85.9609 68.4336 86.0234 69.0273 86.1484 69.582C86.2812 70.1367 86.4805 70.625 86.7461 71.0469C87.0195 71.4688 87.3672 71.8008 87.7891 72.043C88.2109 72.2773 88.7148 72.3945 89.3008 72.3945C90.0195 72.3945 90.6133 72.2422 91.082 71.9375C91.5508 71.6328 91.9219 71.2305 92.1953 70.7305C92.4766 70.2305 92.6953 69.6875 92.8516 69.1016V66.2773C92.7656 65.8477 92.6328 65.4336 92.4531 65.0352C92.2812 64.6289 92.0547 64.2695 91.7734 63.957C91.5 63.6367 91.1602 63.3828 90.7539 63.1953C90.3477 63.0078 89.8711 62.9141 89.3242 62.9141C88.7305 62.9141 88.2188 63.0391 87.7891 63.2891C87.3672 63.5312 87.0195 63.8672 86.7461 64.2969C86.4805 64.7188 86.2812 65.2109 86.1484 65.7734C86.0234 66.3281 85.9609 66.9219 85.9609 67.5547ZM105.262 71.832V65.3047C105.262 64.8047 105.16 64.3711 104.957 64.0039C104.762 63.6289 104.465 63.3398 104.066 63.1367C103.668 62.9336 103.176 62.832 102.59 62.832C102.043 62.832 101.562 62.9258 101.148 63.1133C100.742 63.3008 100.422 63.5469 100.188 63.8516C99.9609 64.1562 99.8477 64.4844 99.8477 64.8359H97.6797C97.6797 64.3828 97.7969 63.9336 98.0312 63.4883C98.2656 63.043 98.6016 62.6406 99.0391 62.2812C99.4844 61.9141 100.016 61.625 100.633 61.4141C101.258 61.1953 101.953 61.0859 102.719 61.0859C103.641 61.0859 104.453 61.2422 105.156 61.5547C105.867 61.8672 106.422 62.3398 106.82 62.9727C107.227 63.5977 107.43 64.3828 107.43 65.3281V71.2344C107.43 71.6562 107.465 72.1055 107.535 72.582C107.613 73.0586 107.727 73.4688 107.875 73.8125V74H105.613C105.504 73.75 105.418 73.418 105.355 73.0039C105.293 72.582 105.262 72.1914 105.262 71.832ZM105.637 66.3125L105.66 67.8359H103.469C102.852 67.8359 102.301 67.8867 101.816 67.9883C101.332 68.082 100.926 68.2266 100.598 68.4219C100.27 68.6172 100.02 68.8633 99.8477 69.1602C99.6758 69.4492 99.5898 69.7891 99.5898 70.1797C99.5898 70.5781 99.6797 70.9414 99.8594 71.2695C100.039 71.5977 100.309 71.8594 100.668 72.0547C101.035 72.2422 101.484 72.3359 102.016 72.3359C102.68 72.3359 103.266 72.1953 103.773 71.9141C104.281 71.6328 104.684 71.2891 104.98 70.8828C105.285 70.4766 105.449 70.082 105.473 69.6992L106.398 70.7422C106.344 71.0703 106.195 71.4336 105.953 71.832C105.711 72.2305 105.387 72.6133 104.98 72.9805C104.582 73.3398 104.105 73.6406 103.551 73.8828C103.004 74.1172 102.387 74.2344 101.699 74.2344C100.84 74.2344 100.086 74.0664 99.4375 73.7305C98.7969 73.3945 98.2969 72.9453 97.9375 72.3828C97.5859 71.8125 97.4102 71.1758 97.4102 70.4727C97.4102 69.793 97.543 69.1953 97.8086 68.6797C98.0742 68.1562 98.457 67.7227 98.957 67.3789C99.457 67.0273 100.059 66.7617 100.762 66.582C101.465 66.4023 102.25 66.3125 103.117 66.3125H105.637ZM113.02 56V74H110.84V56H113.02ZM120.766 61.3203L115.234 67.2383L112.141 70.4492L111.965 68.1406L114.18 65.4922L118.117 61.3203H120.766ZM118.785 74L114.262 67.9531L115.387 66.0195L121.34 74H118.785ZM134.266 61.3203V62.9844H127.41V61.3203H134.266ZM129.73 58.2383H131.898V70.8594C131.898 71.2891 131.965 71.6133 132.098 71.832C132.23 72.0508 132.402 72.1953 132.613 72.2656C132.824 72.3359 133.051 72.3711 133.293 72.3711C133.473 72.3711 133.66 72.3555 133.855 72.3242C134.059 72.2852 134.211 72.2539 134.312 72.2305L134.324 74C134.152 74.0547 133.926 74.1055 133.645 74.1523C133.371 74.207 133.039 74.2344 132.648 74.2344C132.117 74.2344 131.629 74.1289 131.184 73.918C130.738 73.707 130.383 73.3555 130.117 72.8633C129.859 72.3633 129.73 71.6914 129.73 70.8477V58.2383ZM139.164 61.3203V74H136.984V61.3203H139.164ZM136.82 57.957C136.82 57.6055 136.926 57.3086 137.137 57.0664C137.355 56.8242 137.676 56.7031 138.098 56.7031C138.512 56.7031 138.828 56.8242 139.047 57.0664C139.273 57.3086 139.387 57.6055 139.387 57.957C139.387 58.293 139.273 58.582 139.047 58.8242C138.828 59.0586 138.512 59.1758 138.098 59.1758C137.676 59.1758 137.355 59.0586 137.137 58.8242C136.926 58.582 136.82 58.293 136.82 57.957ZM150.637 71.5391V56H152.816V74H150.824L150.637 71.5391ZM142.105 67.8008V67.5547C142.105 66.5859 142.223 65.707 142.457 64.918C142.699 64.1211 143.039 63.4375 143.477 62.8672C143.922 62.2969 144.449 61.8594 145.059 61.5547C145.676 61.2422 146.363 61.0859 147.121 61.0859C147.918 61.0859 148.613 61.2266 149.207 61.5078C149.809 61.7812 150.316 62.1836 150.73 62.7148C151.152 63.2383 151.484 63.8711 151.727 64.6133C151.969 65.3555 152.137 66.1953 152.23 67.1328V68.2109C152.145 69.1406 151.977 69.9766 151.727 70.7188C151.484 71.4609 151.152 72.0938 150.73 72.6172C150.316 73.1406 149.809 73.543 149.207 73.8242C148.605 74.0977 147.902 74.2344 147.098 74.2344C146.355 74.2344 145.676 74.0742 145.059 73.7539C144.449 73.4336 143.922 72.9844 143.477 72.4062C143.039 71.8281 142.699 71.1484 142.457 70.3672C142.223 69.5781 142.105 68.7227 142.105 67.8008ZM144.285 67.5547V67.8008C144.285 68.4336 144.348 69.0273 144.473 69.582C144.605 70.1367 144.809 70.625 145.082 71.0469C145.355 71.4688 145.703 71.8008 146.125 72.043C146.547 72.2773 147.051 72.3945 147.637 72.3945C148.355 72.3945 148.945 72.2422 149.406 71.9375C149.875 71.6328 150.25 71.2305 150.531 70.7305C150.812 70.2305 151.031 69.6875 151.188 69.1016V66.2773C151.094 65.8477 150.957 65.4336 150.777 65.0352C150.605 64.6289 150.379 64.2695 150.098 63.957C149.824 63.6367 149.484 63.3828 149.078 63.1953C148.68 63.0078 148.207 62.9141 147.66 62.9141C147.066 62.9141 146.555 63.0391 146.125 63.2891C145.703 63.5312 145.355 63.8672 145.082 64.2969C144.809 64.7188 144.605 65.2109 144.473 65.7734C144.348 66.3281 144.285 66.9219 144.285 67.5547ZM163.668 71.832V65.3047C163.668 64.8047 163.566 64.3711 163.363 64.0039C163.168 63.6289 162.871 63.3398 162.473 63.1367C162.074 62.9336 161.582 62.832 160.996 62.832C160.449 62.832 159.969 62.9258 159.555 63.1133C159.148 63.3008 158.828 63.5469 158.594 63.8516C158.367 64.1562 158.254 64.4844 158.254 64.8359H156.086C156.086 64.3828 156.203 63.9336 156.438 63.4883C156.672 63.043 157.008 62.6406 157.445 62.2812C157.891 61.9141 158.422 61.625 159.039 61.4141C159.664 61.1953 160.359 61.0859 161.125 61.0859C162.047 61.0859 162.859 61.2422 163.562 61.5547C164.273 61.8672 164.828 62.3398 165.227 62.9727C165.633 63.5977 165.836 64.3828 165.836 65.3281V71.2344C165.836 71.6562 165.871 72.1055 165.941 72.582C166.02 73.0586 166.133 73.4688 166.281 73.8125V74H164.02C163.91 73.75 163.824 73.418 163.762 73.0039C163.699 72.582 163.668 72.1914 163.668 71.832ZM164.043 66.3125L164.066 67.8359H161.875C161.258 67.8359 160.707 67.8867 160.223 67.9883C159.738 68.082 159.332 68.2266 159.004 68.4219C158.676 68.6172 158.426 68.8633 158.254 69.1602C158.082 69.4492 157.996 69.7891 157.996 70.1797C157.996 70.5781 158.086 70.9414 158.266 71.2695C158.445 71.5977 158.715 71.8594 159.074 72.0547C159.441 72.2422 159.891 72.3359 160.422 72.3359C161.086 72.3359 161.672 72.1953 162.18 71.9141C162.688 71.6328 163.09 71.2891 163.387 70.8828C163.691 70.4766 163.855 70.082 163.879 69.6992L164.805 70.7422C164.75 71.0703 164.602 71.4336 164.359 71.832C164.117 72.2305 163.793 72.6133 163.387 72.9805C162.988 73.3398 162.512 73.6406 161.957 73.8828C161.41 74.1172 160.793 74.2344 160.105 74.2344C159.246 74.2344 158.492 74.0664 157.844 73.7305C157.203 73.3945 156.703 72.9453 156.344 72.3828C155.992 71.8125 155.816 71.1758 155.816 70.4727C155.816 69.793 155.949 69.1953 156.215 68.6797C156.48 68.1562 156.863 67.7227 157.363 67.3789C157.863 67.0273 158.465 66.7617 159.168 66.582C159.871 66.4023 160.656 66.3125 161.523 66.3125H164.043ZM171.426 56V74H169.246V56H171.426ZM179.172 61.3203L173.641 67.2383L170.547 70.4492L170.371 68.1406L172.586 65.4922L176.523 61.3203H179.172ZM177.191 74L172.668 67.9531L173.793 66.0195L179.746 74H177.191ZM194.746 70.6367C194.746 70.3242 194.676 70.0352 194.535 69.7695C194.402 69.4961 194.125 69.25 193.703 69.0312C193.289 68.8047 192.664 68.6094 191.828 68.4453C191.125 68.2969 190.488 68.1211 189.918 67.918C189.355 67.7148 188.875 67.4688 188.477 67.1797C188.086 66.8906 187.785 66.5508 187.574 66.1602C187.363 65.7695 187.258 65.3125 187.258 64.7891C187.258 64.2891 187.367 63.8164 187.586 63.3711C187.812 62.9258 188.129 62.5312 188.535 62.1875C188.949 61.8438 189.445 61.5742 190.023 61.3789C190.602 61.1836 191.246 61.0859 191.957 61.0859C192.973 61.0859 193.84 61.2656 194.559 61.625C195.277 61.9844 195.828 62.4648 196.211 63.0664C196.594 63.6602 196.785 64.3203 196.785 65.0469H194.617C194.617 64.6953 194.512 64.3555 194.301 64.0273C194.098 63.6914 193.797 63.4141 193.398 63.1953C193.008 62.9766 192.527 62.8672 191.957 62.8672C191.355 62.8672 190.867 62.9609 190.492 63.1484C190.125 63.3281 189.855 63.5586 189.684 63.8398C189.52 64.1211 189.438 64.418 189.438 64.7305C189.438 64.9648 189.477 65.1758 189.555 65.3633C189.641 65.543 189.789 65.7109 190 65.8672C190.211 66.0156 190.508 66.1562 190.891 66.2891C191.273 66.4219 191.762 66.5547 192.355 66.6875C193.395 66.9219 194.25 67.2031 194.922 67.5312C195.594 67.8594 196.094 68.2617 196.422 68.7383C196.75 69.2148 196.914 69.793 196.914 70.4727C196.914 71.0273 196.797 71.5352 196.562 71.9961C196.336 72.457 196.004 72.8555 195.566 73.1914C195.137 73.5195 194.621 73.7773 194.02 73.9648C193.426 74.1445 192.758 74.2344 192.016 74.2344C190.898 74.2344 189.953 74.0352 189.18 73.6367C188.406 73.2383 187.82 72.7227 187.422 72.0898C187.023 71.457 186.824 70.7891 186.824 70.0859H189.004C189.035 70.6797 189.207 71.1523 189.52 71.5039C189.832 71.8477 190.215 72.0938 190.668 72.2422C191.121 72.3828 191.57 72.4531 192.016 72.4531C192.609 72.4531 193.105 72.375 193.504 72.2188C193.91 72.0625 194.219 71.8477 194.43 71.5742C194.641 71.3008 194.746 70.9883 194.746 70.6367ZM205.023 74.2344C204.141 74.2344 203.34 74.0859 202.621 73.7891C201.91 73.4844 201.297 73.0586 200.781 72.5117C200.273 71.9648 199.883 71.3164 199.609 70.5664C199.336 69.8164 199.199 68.9961 199.199 68.1055V67.6133C199.199 66.582 199.352 65.6641 199.656 64.8594C199.961 64.0469 200.375 63.3594 200.898 62.7969C201.422 62.2344 202.016 61.8086 202.68 61.5195C203.344 61.2305 204.031 61.0859 204.742 61.0859C205.648 61.0859 206.43 61.2422 207.086 61.5547C207.75 61.8672 208.293 62.3047 208.715 62.8672C209.137 63.4219 209.449 64.0781 209.652 64.8359C209.855 65.5859 209.957 66.4062 209.957 67.2969V68.2695H200.488V66.5H207.789V66.3359C207.758 65.7734 207.641 65.2266 207.438 64.6953C207.242 64.1641 206.93 63.7266 206.5 63.3828C206.07 63.0391 205.484 62.8672 204.742 62.8672C204.25 62.8672 203.797 62.9727 203.383 63.1836C202.969 63.3867 202.613 63.6914 202.316 64.0977C202.02 64.5039 201.789 65 201.625 65.5859C201.461 66.1719 201.379 66.8477 201.379 67.6133V68.1055C201.379 68.707 201.461 69.2734 201.625 69.8047C201.797 70.3281 202.043 70.7891 202.363 71.1875C202.691 71.5859 203.086 71.8984 203.547 72.125C204.016 72.3516 204.547 72.4648 205.141 72.4648C205.906 72.4648 206.555 72.3086 207.086 71.9961C207.617 71.6836 208.082 71.2656 208.48 70.7422L209.793 71.7852C209.52 72.1992 209.172 72.5938 208.75 72.9688C208.328 73.3438 207.809 73.6484 207.191 73.8828C206.582 74.1172 205.859 74.2344 205.023 74.2344ZM217.797 61.3203V62.9844H210.941V61.3203H217.797ZM213.262 58.2383H215.43V70.8594C215.43 71.2891 215.496 71.6133 215.629 71.832C215.762 72.0508 215.934 72.1953 216.145 72.2656C216.355 72.3359 216.582 72.3711 216.824 72.3711C217.004 72.3711 217.191 72.3555 217.387 72.3242C217.59 72.2852 217.742 72.2539 217.844 72.2305L217.855 74C217.684 74.0547 217.457 74.1055 217.176 74.1523C216.902 74.207 216.57 74.2344 216.18 74.2344C215.648 74.2344 215.16 74.1289 214.715 73.918C214.27 73.707 213.914 73.3555 213.648 72.8633C213.391 72.3633 213.262 71.6914 213.262 70.8477V58.2383ZM228.098 71.0703V61.3203H230.277V74H228.203L228.098 71.0703ZM228.508 68.3984L229.41 68.375C229.41 69.2188 229.32 70 229.141 70.7188C228.969 71.4297 228.688 72.0469 228.297 72.5703C227.906 73.0938 227.395 73.5039 226.762 73.8008C226.129 74.0898 225.359 74.2344 224.453 74.2344C223.836 74.2344 223.27 74.1445 222.754 73.9648C222.246 73.7852 221.809 73.5078 221.441 73.1328C221.074 72.7578 220.789 72.2695 220.586 71.668C220.391 71.0664 220.293 70.3438 220.293 69.5V61.3203H222.461V69.5234C222.461 70.0938 222.523 70.5664 222.648 70.9414C222.781 71.3086 222.957 71.6016 223.176 71.8203C223.402 72.0312 223.652 72.1797 223.926 72.2656C224.207 72.3516 224.496 72.3945 224.793 72.3945C225.715 72.3945 226.445 72.2188 226.984 71.8672C227.523 71.5078 227.91 71.0273 228.145 70.4258C228.387 69.8164 228.508 69.1406 228.508 68.3984ZM233.641 61.3203H235.82V75.5117C235.82 76.2852 235.695 76.9414 235.445 77.4805C235.203 78.0195 234.836 78.4258 234.344 78.6992C233.859 78.9805 233.246 79.1211 232.504 79.1211C232.309 79.1211 232.082 79.1016 231.824 79.0625C231.559 79.0234 231.336 78.9766 231.156 78.9219L231.168 77.1758C231.316 77.207 231.484 77.2305 231.672 77.2461C231.859 77.2695 232.023 77.2812 232.164 77.2812C232.484 77.2812 232.754 77.2227 232.973 77.1055C233.191 76.9883 233.355 76.8008 233.465 76.543C233.582 76.2852 233.641 75.9414 233.641 75.5117V61.3203ZM233.418 57.957C233.418 57.6055 233.527 57.3086 233.746 57.0664C233.965 56.8242 234.281 56.7031 234.695 56.7031C235.117 56.7031 235.438 56.8242 235.656 57.0664C235.875 57.3086 235.984 57.6055 235.984 57.957C235.984 58.293 235.875 58.582 235.656 58.8242C235.438 59.0586 235.117 59.1758 234.695 59.1758C234.281 59.1758 233.965 59.0586 233.746 58.8242C233.527 58.582 233.418 58.293 233.418 57.957ZM247.082 71.0703V61.3203H249.262V74H247.188L247.082 71.0703ZM247.492 68.3984L248.395 68.375C248.395 69.2188 248.305 70 248.125 70.7188C247.953 71.4297 247.672 72.0469 247.281 72.5703C246.891 73.0938 246.379 73.5039 245.746 73.8008C245.113 74.0898 244.344 74.2344 243.438 74.2344C242.82 74.2344 242.254 74.1445 241.738 73.9648C241.23 73.7852 240.793 73.5078 240.426 73.1328C240.059 72.7578 239.773 72.2695 239.57 71.668C239.375 71.0664 239.277 70.3438 239.277 69.5V61.3203H241.445V69.5234C241.445 70.0938 241.508 70.5664 241.633 70.9414C241.766 71.3086 241.941 71.6016 242.16 71.8203C242.387 72.0312 242.637 72.1797 242.91 72.2656C243.191 72.3516 243.48 72.3945 243.777 72.3945C244.699 72.3945 245.43 72.2188 245.969 71.8672C246.508 71.5078 246.895 71.0273 247.129 70.4258C247.371 69.8164 247.492 69.1406 247.492 68.3984Z" fill="black"/>
<g clip-path="url(#clip1_573_2270)">
<rect width="40" height="40" transform="translate(0 47)" fill="#6750A4" fill-opacity="0.08"/>
<path d="M23.4453 70.6875V72H16.7734V70.8721L20.0137 67.3379C20.3691 66.9368 20.6494 66.5905 20.8545 66.2988C21.0596 66.0072 21.2031 65.7451 21.2852 65.5127C21.3717 65.2757 21.415 65.0456 21.415 64.8223C21.415 64.5078 21.3558 64.2321 21.2373 63.9951C21.1234 63.7536 20.9548 63.5645 20.7314 63.4277C20.5081 63.2865 20.237 63.2158 19.918 63.2158C19.5488 63.2158 19.2389 63.2956 18.9883 63.4551C18.7376 63.6146 18.5485 63.8356 18.4209 64.1182C18.2933 64.3962 18.2295 64.7152 18.2295 65.0752H16.582C16.582 64.4964 16.7142 63.9678 16.9785 63.4893C17.2428 63.0062 17.6257 62.6234 18.127 62.3408C18.6283 62.0537 19.2321 61.9102 19.9385 61.9102C20.6038 61.9102 21.1689 62.0218 21.6338 62.2451C22.0986 62.4684 22.4518 62.7852 22.6934 63.1953C22.9395 63.6055 23.0625 64.0908 23.0625 64.6514C23.0625 64.9613 23.0124 65.2689 22.9121 65.5742C22.8118 65.8796 22.6683 66.1849 22.4814 66.4902C22.2992 66.791 22.0827 67.0941 21.832 67.3994C21.5814 67.7002 21.3057 68.0055 21.0049 68.3154L18.8516 70.6875H23.4453Z" fill="#0C51FF"/>
</g>
<rect x="0.5" y="47.5" width="39" height="39" rx="19.5" stroke="#79747E"/>
<path d="M73.5977 121H70.0352L70.0586 119.16H73.5977C74.8164 119.16 75.832 118.906 76.6445 118.398C77.457 117.883 78.0664 117.164 78.4727 116.242C78.8867 115.312 79.0938 114.227 79.0938 112.984V111.941C79.0938 110.965 78.9766 110.098 78.7422 109.34C78.5078 108.574 78.1641 107.93 77.7109 107.406C77.2578 106.875 76.7031 106.473 76.0469 106.199C75.3984 105.926 74.6523 105.789 73.8086 105.789H69.9648V103.938H73.8086C74.9258 103.938 75.9453 104.125 76.8672 104.5C77.7891 104.867 78.582 105.402 79.2461 106.105C79.918 106.801 80.4336 107.645 80.793 108.637C81.1523 109.621 81.332 110.73 81.332 111.965V112.984C81.332 114.219 81.1523 115.332 80.793 116.324C80.4336 117.309 79.9141 118.148 79.2344 118.844C78.5625 119.539 77.75 120.074 76.7969 120.449C75.8516 120.816 74.7852 121 73.5977 121ZM71.2422 103.938V121H68.9805V103.938H71.2422ZM86.7578 108.32V121H84.5781V108.32H86.7578ZM84.4141 104.957C84.4141 104.605 84.5195 104.309 84.7305 104.066C84.9492 103.824 85.2695 103.703 85.6914 103.703C86.1055 103.703 86.4219 103.824 86.6406 104.066C86.8672 104.309 86.9805 104.605 86.9805 104.957C86.9805 105.293 86.8672 105.582 86.6406 105.824C86.4219 106.059 86.1055 106.176 85.6914 106.176C85.2695 106.176 84.9492 106.059 84.7305 105.824C84.5195 105.582 84.4141 105.293 84.4141 104.957ZM101.5 108.32V109.984H94.6445V108.32H101.5ZM96.9648 105.238H99.1328V117.859C99.1328 118.289 99.1992 118.613 99.332 118.832C99.4648 119.051 99.6367 119.195 99.8477 119.266C100.059 119.336 100.285 119.371 100.527 119.371C100.707 119.371 100.895 119.355 101.09 119.324C101.293 119.285 101.445 119.254 101.547 119.23L101.559 121C101.387 121.055 101.16 121.105 100.879 121.152C100.605 121.207 100.273 121.234 99.8828 121.234C99.3516 121.234 98.8633 121.129 98.418 120.918C97.9727 120.707 97.6172 120.355 97.3516 119.863C97.0938 119.363 96.9648 118.691 96.9648 117.848V105.238ZM109.305 121.234C108.422 121.234 107.621 121.086 106.902 120.789C106.191 120.484 105.578 120.059 105.062 119.512C104.555 118.965 104.164 118.316 103.891 117.566C103.617 116.816 103.48 115.996 103.48 115.105V114.613C103.48 113.582 103.633 112.664 103.938 111.859C104.242 111.047 104.656 110.359 105.18 109.797C105.703 109.234 106.297 108.809 106.961 108.52C107.625 108.23 108.312 108.086 109.023 108.086C109.93 108.086 110.711 108.242 111.367 108.555C112.031 108.867 112.574 109.305 112.996 109.867C113.418 110.422 113.73 111.078 113.934 111.836C114.137 112.586 114.238 113.406 114.238 114.297V115.27H104.77V113.5H112.07V113.336C112.039 112.773 111.922 112.227 111.719 111.695C111.523 111.164 111.211 110.727 110.781 110.383C110.352 110.039 109.766 109.867 109.023 109.867C108.531 109.867 108.078 109.973 107.664 110.184C107.25 110.387 106.895 110.691 106.598 111.098C106.301 111.504 106.07 112 105.906 112.586C105.742 113.172 105.66 113.848 105.66 114.613V115.105C105.66 115.707 105.742 116.273 105.906 116.805C106.078 117.328 106.324 117.789 106.645 118.188C106.973 118.586 107.367 118.898 107.828 119.125C108.297 119.352 108.828 119.465 109.422 119.465C110.188 119.465 110.836 119.309 111.367 118.996C111.898 118.684 112.363 118.266 112.762 117.742L114.074 118.785C113.801 119.199 113.453 119.594 113.031 119.969C112.609 120.344 112.09 120.648 111.473 120.883C110.863 121.117 110.141 121.234 109.305 121.234ZM118.938 111.027V121H116.77V108.32H118.82L118.938 111.027ZM118.422 114.18L117.52 114.145C117.527 113.277 117.656 112.477 117.906 111.742C118.156 111 118.508 110.355 118.961 109.809C119.414 109.262 119.953 108.84 120.578 108.543C121.211 108.238 121.91 108.086 122.676 108.086C123.301 108.086 123.863 108.172 124.363 108.344C124.863 108.508 125.289 108.773 125.641 109.141C126 109.508 126.273 109.984 126.461 110.57C126.648 111.148 126.742 111.855 126.742 112.691V121H124.562V112.668C124.562 112.004 124.465 111.473 124.27 111.074C124.074 110.668 123.789 110.375 123.414 110.195C123.039 110.008 122.578 109.914 122.031 109.914C121.492 109.914 121 110.027 120.555 110.254C120.117 110.48 119.738 110.793 119.418 111.191C119.105 111.59 118.859 112.047 118.68 112.562C118.508 113.07 118.422 113.609 118.422 114.18ZM138.25 108.32H140.219V120.73C140.219 121.848 139.992 122.801 139.539 123.59C139.086 124.379 138.453 124.977 137.641 125.383C136.836 125.797 135.906 126.004 134.852 126.004C134.414 126.004 133.898 125.934 133.305 125.793C132.719 125.66 132.141 125.43 131.57 125.102C131.008 124.781 130.535 124.348 130.152 123.801L131.289 122.512C131.82 123.152 132.375 123.598 132.953 123.848C133.539 124.098 134.117 124.223 134.688 124.223C135.375 124.223 135.969 124.094 136.469 123.836C136.969 123.578 137.355 123.195 137.629 122.688C137.91 122.188 138.051 121.57 138.051 120.836V111.109L138.25 108.32ZM129.52 114.801V114.555C129.52 113.586 129.633 112.707 129.859 111.918C130.094 111.121 130.426 110.438 130.855 109.867C131.293 109.297 131.82 108.859 132.438 108.555C133.055 108.242 133.75 108.086 134.523 108.086C135.32 108.086 136.016 108.227 136.609 108.508C137.211 108.781 137.719 109.184 138.133 109.715C138.555 110.238 138.887 110.871 139.129 111.613C139.371 112.355 139.539 113.195 139.633 114.133V115.211C139.547 116.141 139.379 116.977 139.129 117.719C138.887 118.461 138.555 119.094 138.133 119.617C137.719 120.141 137.211 120.543 136.609 120.824C136.008 121.098 135.305 121.234 134.5 121.234C133.742 121.234 133.055 121.074 132.438 120.754C131.828 120.434 131.305 119.984 130.867 119.406C130.43 118.828 130.094 118.148 129.859 117.367C129.633 116.578 129.52 115.723 129.52 114.801ZM131.688 114.555V114.801C131.688 115.434 131.75 116.027 131.875 116.582C132.008 117.137 132.207 117.625 132.473 118.047C132.746 118.469 133.094 118.801 133.516 119.043C133.938 119.277 134.441 119.395 135.027 119.395C135.746 119.395 136.34 119.242 136.809 118.938C137.277 118.633 137.648 118.23 137.922 117.73C138.203 117.23 138.422 116.688 138.578 116.102V113.277C138.492 112.848 138.359 112.434 138.18 112.035C138.008 111.629 137.781 111.27 137.5 110.957C137.227 110.637 136.887 110.383 136.48 110.195C136.074 110.008 135.598 109.914 135.051 109.914C134.457 109.914 133.945 110.039 133.516 110.289C133.094 110.531 132.746 110.867 132.473 111.297C132.207 111.719 132.008 112.211 131.875 112.773C131.75 113.328 131.688 113.922 131.688 114.555ZM150.988 118.832V112.305C150.988 111.805 150.887 111.371 150.684 111.004C150.488 110.629 150.191 110.34 149.793 110.137C149.395 109.934 148.902 109.832 148.316 109.832C147.77 109.832 147.289 109.926 146.875 110.113C146.469 110.301 146.148 110.547 145.914 110.852C145.688 111.156 145.574 111.484 145.574 111.836H143.406C143.406 111.383 143.523 110.934 143.758 110.488C143.992 110.043 144.328 109.641 144.766 109.281C145.211 108.914 145.742 108.625 146.359 108.414C146.984 108.195 147.68 108.086 148.445 108.086C149.367 108.086 150.18 108.242 150.883 108.555C151.594 108.867 152.148 109.34 152.547 109.973C152.953 110.598 153.156 111.383 153.156 112.328V118.234C153.156 118.656 153.191 119.105 153.262 119.582C153.34 120.059 153.453 120.469 153.602 120.812V121H151.34C151.23 120.75 151.145 120.418 151.082 120.004C151.02 119.582 150.988 119.191 150.988 118.832ZM151.363 113.312L151.387 114.836H149.195C148.578 114.836 148.027 114.887 147.543 114.988C147.059 115.082 146.652 115.227 146.324 115.422C145.996 115.617 145.746 115.863 145.574 116.16C145.402 116.449 145.316 116.789 145.316 117.18C145.316 117.578 145.406 117.941 145.586 118.27C145.766 118.598 146.035 118.859 146.395 119.055C146.762 119.242 147.211 119.336 147.742 119.336C148.406 119.336 148.992 119.195 149.5 118.914C150.008 118.633 150.41 118.289 150.707 117.883C151.012 117.477 151.176 117.082 151.199 116.699L152.125 117.742C152.07 118.07 151.922 118.434 151.68 118.832C151.438 119.23 151.113 119.613 150.707 119.98C150.309 120.34 149.832 120.641 149.277 120.883C148.73 121.117 148.113 121.234 147.426 121.234C146.566 121.234 145.812 121.066 145.164 120.73C144.523 120.395 144.023 119.945 143.664 119.383C143.312 118.812 143.137 118.176 143.137 117.473C143.137 116.793 143.27 116.195 143.535 115.68C143.801 115.156 144.184 114.723 144.684 114.379C145.184 114.027 145.785 113.762 146.488 113.582C147.191 113.402 147.977 113.312 148.844 113.312H151.363ZM158.734 103V121H156.566V103H158.734ZM158.219 114.18L157.316 114.145C157.324 113.277 157.453 112.477 157.703 111.742C157.953 111 158.305 110.355 158.758 109.809C159.211 109.262 159.75 108.84 160.375 108.543C161.008 108.238 161.707 108.086 162.473 108.086C163.098 108.086 163.66 108.172 164.16 108.344C164.66 108.508 165.086 108.773 165.438 109.141C165.797 109.508 166.07 109.984 166.258 110.57C166.445 111.148 166.539 111.855 166.539 112.691V121H164.359V112.668C164.359 112.004 164.262 111.473 164.066 111.074C163.871 110.668 163.586 110.375 163.211 110.195C162.836 110.008 162.375 109.914 161.828 109.914C161.289 109.914 160.797 110.027 160.352 110.254C159.914 110.48 159.535 110.793 159.215 111.191C158.902 111.59 158.656 112.047 158.477 112.562C158.305 113.07 158.219 113.609 158.219 114.18ZM174.297 112.855V114.637H168.578V112.855H174.297ZM181.727 108.32V109.984H174.871V108.32H181.727ZM177.191 105.238H179.359V117.859C179.359 118.289 179.426 118.613 179.559 118.832C179.691 119.051 179.863 119.195 180.074 119.266C180.285 119.336 180.512 119.371 180.754 119.371C180.934 119.371 181.121 119.355 181.316 119.324C181.52 119.285 181.672 119.254 181.773 119.23L181.785 121C181.613 121.055 181.387 121.105 181.105 121.152C180.832 121.207 180.5 121.234 180.109 121.234C179.578 121.234 179.09 121.129 178.645 120.918C178.199 120.707 177.844 120.355 177.578 119.863C177.32 119.363 177.191 118.691 177.191 117.848V105.238ZM189.531 121.234C188.648 121.234 187.848 121.086 187.129 120.789C186.418 120.484 185.805 120.059 185.289 119.512C184.781 118.965 184.391 118.316 184.117 117.566C183.844 116.816 183.707 115.996 183.707 115.105V114.613C183.707 113.582 183.859 112.664 184.164 111.859C184.469 111.047 184.883 110.359 185.406 109.797C185.93 109.234 186.523 108.809 187.188 108.52C187.852 108.23 188.539 108.086 189.25 108.086C190.156 108.086 190.938 108.242 191.594 108.555C192.258 108.867 192.801 109.305 193.223 109.867C193.645 110.422 193.957 111.078 194.16 111.836C194.363 112.586 194.465 113.406 194.465 114.297V115.27H184.996V113.5H192.297V113.336C192.266 112.773 192.148 112.227 191.945 111.695C191.75 111.164 191.438 110.727 191.008 110.383C190.578 110.039 189.992 109.867 189.25 109.867C188.758 109.867 188.305 109.973 187.891 110.184C187.477 110.387 187.121 110.691 186.824 111.098C186.527 111.504 186.297 112 186.133 112.586C185.969 113.172 185.887 113.848 185.887 114.613V115.105C185.887 115.707 185.969 116.273 186.133 116.805C186.305 117.328 186.551 117.789 186.871 118.188C187.199 118.586 187.594 118.898 188.055 119.125C188.523 119.352 189.055 119.465 189.648 119.465C190.414 119.465 191.062 119.309 191.594 118.996C192.125 118.684 192.59 118.266 192.988 117.742L194.301 118.785C194.027 119.199 193.68 119.594 193.258 119.969C192.836 120.344 192.316 120.648 191.699 120.883C191.09 121.117 190.367 121.234 189.531 121.234ZM199.164 111.027V121H196.996V108.32H199.047L199.164 111.027ZM198.648 114.18L197.746 114.145C197.754 113.277 197.883 112.477 198.133 111.742C198.383 111 198.734 110.355 199.188 109.809C199.641 109.262 200.18 108.84 200.805 108.543C201.438 108.238 202.137 108.086 202.902 108.086C203.527 108.086 204.09 108.172 204.59 108.344C205.09 108.508 205.516 108.773 205.867 109.141C206.227 109.508 206.5 109.984 206.688 110.57C206.875 111.148 206.969 111.855 206.969 112.691V121H204.789V112.668C204.789 112.004 204.691 111.473 204.496 111.074C204.301 110.668 204.016 110.375 203.641 110.195C203.266 110.008 202.805 109.914 202.258 109.914C201.719 109.914 201.227 110.027 200.781 110.254C200.344 110.48 199.965 110.793 199.645 111.191C199.332 111.59 199.086 112.047 198.906 112.562C198.734 113.07 198.648 113.609 198.648 114.18ZM218.477 108.32H220.445V120.73C220.445 121.848 220.219 122.801 219.766 123.59C219.312 124.379 218.68 124.977 217.867 125.383C217.062 125.797 216.133 126.004 215.078 126.004C214.641 126.004 214.125 125.934 213.531 125.793C212.945 125.66 212.367 125.43 211.797 125.102C211.234 124.781 210.762 124.348 210.379 123.801L211.516 122.512C212.047 123.152 212.602 123.598 213.18 123.848C213.766 124.098 214.344 124.223 214.914 124.223C215.602 124.223 216.195 124.094 216.695 123.836C217.195 123.578 217.582 123.195 217.855 122.688C218.137 122.188 218.277 121.57 218.277 120.836V111.109L218.477 108.32ZM209.746 114.801V114.555C209.746 113.586 209.859 112.707 210.086 111.918C210.32 111.121 210.652 110.438 211.082 109.867C211.52 109.297 212.047 108.859 212.664 108.555C213.281 108.242 213.977 108.086 214.75 108.086C215.547 108.086 216.242 108.227 216.836 108.508C217.438 108.781 217.945 109.184 218.359 109.715C218.781 110.238 219.113 110.871 219.355 111.613C219.598 112.355 219.766 113.195 219.859 114.133V115.211C219.773 116.141 219.605 116.977 219.355 117.719C219.113 118.461 218.781 119.094 218.359 119.617C217.945 120.141 217.438 120.543 216.836 120.824C216.234 121.098 215.531 121.234 214.727 121.234C213.969 121.234 213.281 121.074 212.664 120.754C212.055 120.434 211.531 119.984 211.094 119.406C210.656 118.828 210.32 118.148 210.086 117.367C209.859 116.578 209.746 115.723 209.746 114.801ZM211.914 114.555V114.801C211.914 115.434 211.977 116.027 212.102 116.582C212.234 117.137 212.434 117.625 212.699 118.047C212.973 118.469 213.32 118.801 213.742 119.043C214.164 119.277 214.668 119.395 215.254 119.395C215.973 119.395 216.566 119.242 217.035 118.938C217.504 118.633 217.875 118.23 218.148 117.73C218.43 117.23 218.648 116.688 218.805 116.102V113.277C218.719 112.848 218.586 112.434 218.406 112.035C218.234 111.629 218.008 111.27 217.727 110.957C217.453 110.637 217.113 110.383 216.707 110.195C216.301 110.008 215.824 109.914 215.277 109.914C214.684 109.914 214.172 110.039 213.742 110.289C213.32 110.531 212.973 110.867 212.699 111.297C212.434 111.719 212.234 112.211 212.102 112.773C211.977 113.328 211.914 113.922 211.914 114.555ZM231.215 118.832V112.305C231.215 111.805 231.113 111.371 230.91 111.004C230.715 110.629 230.418 110.34 230.02 110.137C229.621 109.934 229.129 109.832 228.543 109.832C227.996 109.832 227.516 109.926 227.102 110.113C226.695 110.301 226.375 110.547 226.141 110.852C225.914 111.156 225.801 111.484 225.801 111.836H223.633C223.633 111.383 223.75 110.934 223.984 110.488C224.219 110.043 224.555 109.641 224.992 109.281C225.438 108.914 225.969 108.625 226.586 108.414C227.211 108.195 227.906 108.086 228.672 108.086C229.594 108.086 230.406 108.242 231.109 108.555C231.82 108.867 232.375 109.34 232.773 109.973C233.18 110.598 233.383 111.383 233.383 112.328V118.234C233.383 118.656 233.418 119.105 233.488 119.582C233.566 120.059 233.68 120.469 233.828 120.812V121H231.566C231.457 120.75 231.371 120.418 231.309 120.004C231.246 119.582 231.215 119.191 231.215 118.832ZM231.59 113.312L231.613 114.836H229.422C228.805 114.836 228.254 114.887 227.77 114.988C227.285 115.082 226.879 115.227 226.551 115.422C226.223 115.617 225.973 115.863 225.801 116.16C225.629 116.449 225.543 116.789 225.543 117.18C225.543 117.578 225.633 117.941 225.812 118.27C225.992 118.598 226.262 118.859 226.621 119.055C226.988 119.242 227.438 119.336 227.969 119.336C228.633 119.336 229.219 119.195 229.727 118.914C230.234 118.633 230.637 118.289 230.934 117.883C231.238 117.477 231.402 117.082 231.426 116.699L232.352 117.742C232.297 118.07 232.148 118.434 231.906 118.832C231.664 119.23 231.34 119.613 230.934 119.98C230.535 120.34 230.059 120.641 229.504 120.883C228.957 121.117 228.34 121.234 227.652 121.234C226.793 121.234 226.039 121.066 225.391 120.73C224.75 120.395 224.25 119.945 223.891 119.383C223.539 118.812 223.363 118.176 223.363 117.473C223.363 116.793 223.496 116.195 223.762 115.68C224.027 115.156 224.41 114.723 224.91 114.379C225.41 114.027 226.012 113.762 226.715 113.582C227.418 113.402 228.203 113.312 229.07 113.312H231.59ZM238.961 103V121H236.793V103H238.961ZM238.445 114.18L237.543 114.145C237.551 113.277 237.68 112.477 237.93 111.742C238.18 111 238.531 110.355 238.984 109.809C239.438 109.262 239.977 108.84 240.602 108.543C241.234 108.238 241.934 108.086 242.699 108.086C243.324 108.086 243.887 108.172 244.387 108.344C244.887 108.508 245.312 108.773 245.664 109.141C246.023 109.508 246.297 109.984 246.484 110.57C246.672 111.148 246.766 111.855 246.766 112.691V121H244.586V112.668C244.586 112.004 244.488 111.473 244.293 111.074C244.098 110.668 243.812 110.375 243.438 110.195C243.062 110.008 242.602 109.914 242.055 109.914C241.516 109.914 241.023 110.027 240.578 110.254C240.141 110.48 239.762 110.793 239.441 111.191C239.129 111.59 238.883 112.047 238.703 112.562C238.531 113.07 238.445 113.609 238.445 114.18Z" fill="black"/>
<g clip-path="url(#clip2_573_2270)">
<rect width="40" height="40" transform="translate(0 94)" fill="#6750A4" fill-opacity="0.08"/>
<path d="M18.708 113.278H19.6924C20.0752 113.278 20.3919 113.212 20.6426 113.08C20.8978 112.948 21.0869 112.766 21.21 112.533C21.333 112.301 21.3945 112.034 21.3945 111.733C21.3945 111.419 21.3376 111.15 21.2236 110.927C21.1143 110.699 20.9456 110.523 20.7178 110.4C20.4945 110.277 20.2096 110.216 19.8633 110.216C19.5716 110.216 19.3073 110.275 19.0703 110.394C18.8379 110.507 18.6533 110.672 18.5166 110.886C18.3799 111.095 18.3115 111.346 18.3115 111.638H16.6572C16.6572 111.109 16.7962 110.64 17.0742 110.229C17.3522 109.819 17.7305 109.498 18.209 109.266C18.6921 109.029 19.2344 108.91 19.8359 108.91C20.4785 108.91 21.0391 109.017 21.5176 109.231C22.0007 109.441 22.3766 109.756 22.6455 110.175C22.9144 110.594 23.0488 111.114 23.0488 111.733C23.0488 112.016 22.9827 112.303 22.8506 112.595C22.7184 112.886 22.5225 113.153 22.2627 113.395C22.0029 113.632 21.6794 113.825 21.292 113.976C20.9046 114.121 20.4557 114.194 19.9453 114.194H18.708V113.278ZM18.708 114.563V113.661H19.9453C20.5286 113.661 21.0254 113.729 21.4355 113.866C21.8503 114.003 22.1875 114.192 22.4473 114.434C22.707 114.671 22.8962 114.942 23.0146 115.247C23.1377 115.552 23.1992 115.876 23.1992 116.218C23.1992 116.683 23.1149 117.097 22.9463 117.462C22.7822 117.822 22.5475 118.127 22.2422 118.378C21.9368 118.629 21.5791 118.818 21.1689 118.945C20.7633 119.073 20.3213 119.137 19.8428 119.137C19.4144 119.137 19.0042 119.077 18.6123 118.959C18.2204 118.84 17.8695 118.665 17.5596 118.433C17.2497 118.196 17.0036 117.902 16.8213 117.551C16.6436 117.195 16.5547 116.785 16.5547 116.32H18.2021C18.2021 116.617 18.2705 116.879 18.4072 117.106C18.5485 117.33 18.7445 117.505 18.9951 117.633C19.2503 117.76 19.542 117.824 19.8701 117.824C20.2165 117.824 20.515 117.763 20.7656 117.64C21.0163 117.517 21.2077 117.334 21.3398 117.093C21.4766 116.851 21.5449 116.56 21.5449 116.218C21.5449 115.83 21.4697 115.516 21.3193 115.274C21.1689 115.033 20.9548 114.855 20.6768 114.741C20.3988 114.623 20.0706 114.563 19.6924 114.563H18.708Z" fill="#0C51FF"/>
</g>
<rect x="0.5" y="94.5" width="39" height="39" rx="19.5" stroke="#79747E"/>
<path d="M75.2969 152.449L69.6484 168H67.3398L73.8438 150.938H75.332L75.2969 152.449ZM80.0312 168L74.3711 152.449L74.3359 150.938H75.8242L82.3516 168H80.0312ZM79.7383 161.684V163.535H70.1523V161.684H79.7383ZM92.5234 155.32H94.4922V167.73C94.4922 168.848 94.2656 169.801 93.8125 170.59C93.3594 171.379 92.7266 171.977 91.9141 172.383C91.1094 172.797 90.1797 173.004 89.125 173.004C88.6875 173.004 88.1719 172.934 87.5781 172.793C86.9922 172.66 86.4141 172.43 85.8438 172.102C85.2812 171.781 84.8086 171.348 84.4258 170.801L85.5625 169.512C86.0938 170.152 86.6484 170.598 87.2266 170.848C87.8125 171.098 88.3906 171.223 88.9609 171.223C89.6484 171.223 90.2422 171.094 90.7422 170.836C91.2422 170.578 91.6289 170.195 91.9023 169.688C92.1836 169.188 92.3242 168.57 92.3242 167.836V158.109L92.5234 155.32ZM83.793 161.801V161.555C83.793 160.586 83.9062 159.707 84.1328 158.918C84.3672 158.121 84.6992 157.438 85.1289 156.867C85.5664 156.297 86.0938 155.859 86.7109 155.555C87.3281 155.242 88.0234 155.086 88.7969 155.086C89.5938 155.086 90.2891 155.227 90.8828 155.508C91.4844 155.781 91.9922 156.184 92.4062 156.715C92.8281 157.238 93.1602 157.871 93.4023 158.613C93.6445 159.355 93.8125 160.195 93.9062 161.133V162.211C93.8203 163.141 93.6523 163.977 93.4023 164.719C93.1602 165.461 92.8281 166.094 92.4062 166.617C91.9922 167.141 91.4844 167.543 90.8828 167.824C90.2812 168.098 89.5781 168.234 88.7734 168.234C88.0156 168.234 87.3281 168.074 86.7109 167.754C86.1016 167.434 85.5781 166.984 85.1406 166.406C84.7031 165.828 84.3672 165.148 84.1328 164.367C83.9062 163.578 83.793 162.723 83.793 161.801ZM85.9609 161.555V161.801C85.9609 162.434 86.0234 163.027 86.1484 163.582C86.2812 164.137 86.4805 164.625 86.7461 165.047C87.0195 165.469 87.3672 165.801 87.7891 166.043C88.2109 166.277 88.7148 166.395 89.3008 166.395C90.0195 166.395 90.6133 166.242 91.082 165.938C91.5508 165.633 91.9219 165.23 92.1953 164.73C92.4766 164.23 92.6953 163.688 92.8516 163.102V160.277C92.7656 159.848 92.6328 159.434 92.4531 159.035C92.2812 158.629 92.0547 158.27 91.7734 157.957C91.5 157.637 91.1602 157.383 90.7539 157.195C90.3477 157.008 89.8711 156.914 89.3242 156.914C88.7305 156.914 88.2188 157.039 87.7891 157.289C87.3672 157.531 87.0195 157.867 86.7461 158.297C86.4805 158.719 86.2812 159.211 86.1484 159.773C86.0234 160.328 85.9609 160.922 85.9609 161.555ZM105.262 165.832V159.305C105.262 158.805 105.16 158.371 104.957 158.004C104.762 157.629 104.465 157.34 104.066 157.137C103.668 156.934 103.176 156.832 102.59 156.832C102.043 156.832 101.562 156.926 101.148 157.113C100.742 157.301 100.422 157.547 100.188 157.852C99.9609 158.156 99.8477 158.484 99.8477 158.836H97.6797C97.6797 158.383 97.7969 157.934 98.0312 157.488C98.2656 157.043 98.6016 156.641 99.0391 156.281C99.4844 155.914 100.016 155.625 100.633 155.414C101.258 155.195 101.953 155.086 102.719 155.086C103.641 155.086 104.453 155.242 105.156 155.555C105.867 155.867 106.422 156.34 106.82 156.973C107.227 157.598 107.43 158.383 107.43 159.328V165.234C107.43 165.656 107.465 166.105 107.535 166.582C107.613 167.059 107.727 167.469 107.875 167.812V168H105.613C105.504 167.75 105.418 167.418 105.355 167.004C105.293 166.582 105.262 166.191 105.262 165.832ZM105.637 160.312L105.66 161.836H103.469C102.852 161.836 102.301 161.887 101.816 161.988C101.332 162.082 100.926 162.227 100.598 162.422C100.27 162.617 100.02 162.863 99.8477 163.16C99.6758 163.449 99.5898 163.789 99.5898 164.18C99.5898 164.578 99.6797 164.941 99.8594 165.27C100.039 165.598 100.309 165.859 100.668 166.055C101.035 166.242 101.484 166.336 102.016 166.336C102.68 166.336 103.266 166.195 103.773 165.914C104.281 165.633 104.684 165.289 104.98 164.883C105.285 164.477 105.449 164.082 105.473 163.699L106.398 164.742C106.344 165.07 106.195 165.434 105.953 165.832C105.711 166.23 105.387 166.613 104.98 166.98C104.582 167.34 104.105 167.641 103.551 167.883C103.004 168.117 102.387 168.234 101.699 168.234C100.84 168.234 100.086 168.066 99.4375 167.73C98.7969 167.395 98.2969 166.945 97.9375 166.383C97.5859 165.812 97.4102 165.176 97.4102 164.473C97.4102 163.793 97.543 163.195 97.8086 162.68C98.0742 162.156 98.457 161.723 98.957 161.379C99.457 161.027 100.059 160.762 100.762 160.582C101.465 160.402 102.25 160.312 103.117 160.312H105.637ZM113.02 150V168H110.84V150H113.02ZM120.766 155.32L115.234 161.238L112.141 164.449L111.965 162.141L114.18 159.492L118.117 155.32H120.766ZM118.785 168L114.262 161.953L115.387 160.02L121.34 168H118.785ZM138.379 163.688C138.379 163.289 138.316 162.938 138.191 162.633C138.074 162.32 137.863 162.039 137.559 161.789C137.262 161.539 136.848 161.301 136.316 161.074C135.793 160.848 135.129 160.617 134.324 160.383C133.48 160.133 132.719 159.855 132.039 159.551C131.359 159.238 130.777 158.883 130.293 158.484C129.809 158.086 129.438 157.629 129.18 157.113C128.922 156.598 128.793 156.008 128.793 155.344C128.793 154.68 128.93 154.066 129.203 153.504C129.477 152.941 129.867 152.453 130.375 152.039C130.891 151.617 131.504 151.289 132.215 151.055C132.926 150.82 133.719 150.703 134.594 150.703C135.875 150.703 136.961 150.949 137.852 151.441C138.75 151.926 139.434 152.562 139.902 153.352C140.371 154.133 140.605 154.969 140.605 155.859H138.355C138.355 155.219 138.219 154.652 137.945 154.16C137.672 153.66 137.258 153.27 136.703 152.988C136.148 152.699 135.445 152.555 134.594 152.555C133.789 152.555 133.125 152.676 132.602 152.918C132.078 153.16 131.688 153.488 131.43 153.902C131.18 154.316 131.055 154.789 131.055 155.32C131.055 155.68 131.129 156.008 131.277 156.305C131.434 156.594 131.672 156.863 131.992 157.113C132.32 157.363 132.734 157.594 133.234 157.805C133.742 158.016 134.348 158.219 135.051 158.414C136.02 158.688 136.855 158.992 137.559 159.328C138.262 159.664 138.84 160.043 139.293 160.465C139.754 160.879 140.094 161.352 140.312 161.883C140.539 162.406 140.652 163 140.652 163.664C140.652 164.359 140.512 164.988 140.23 165.551C139.949 166.113 139.547 166.594 139.023 166.992C138.5 167.391 137.871 167.699 137.137 167.918C136.41 168.129 135.598 168.234 134.699 168.234C133.91 168.234 133.133 168.125 132.367 167.906C131.609 167.688 130.918 167.359 130.293 166.922C129.676 166.484 129.18 165.945 128.805 165.305C128.438 164.656 128.254 163.906 128.254 163.055H130.504C130.504 163.641 130.617 164.145 130.844 164.566C131.07 164.98 131.379 165.324 131.77 165.598C132.168 165.871 132.617 166.074 133.117 166.207C133.625 166.332 134.152 166.395 134.699 166.395C135.488 166.395 136.156 166.285 136.703 166.066C137.25 165.848 137.664 165.535 137.945 165.129C138.234 164.723 138.379 164.242 138.379 163.688ZM148.469 168.234C147.586 168.234 146.785 168.086 146.066 167.789C145.355 167.484 144.742 167.059 144.227 166.512C143.719 165.965 143.328 165.316 143.055 164.566C142.781 163.816 142.645 162.996 142.645 162.105V161.613C142.645 160.582 142.797 159.664 143.102 158.859C143.406 158.047 143.82 157.359 144.344 156.797C144.867 156.234 145.461 155.809 146.125 155.52C146.789 155.23 147.477 155.086 148.188 155.086C149.094 155.086 149.875 155.242 150.531 155.555C151.195 155.867 151.738 156.305 152.16 156.867C152.582 157.422 152.895 158.078 153.098 158.836C153.301 159.586 153.402 160.406 153.402 161.297V162.27H143.934V160.5H151.234V160.336C151.203 159.773 151.086 159.227 150.883 158.695C150.688 158.164 150.375 157.727 149.945 157.383C149.516 157.039 148.93 156.867 148.188 156.867C147.695 156.867 147.242 156.973 146.828 157.184C146.414 157.387 146.059 157.691 145.762 158.098C145.465 158.504 145.234 159 145.07 159.586C144.906 160.172 144.824 160.848 144.824 161.613V162.105C144.824 162.707 144.906 163.273 145.07 163.805C145.242 164.328 145.488 164.789 145.809 165.188C146.137 165.586 146.531 165.898 146.992 166.125C147.461 166.352 147.992 166.465 148.586 166.465C149.352 166.465 150 166.309 150.531 165.996C151.062 165.684 151.527 165.266 151.926 164.742L153.238 165.785C152.965 166.199 152.617 166.594 152.195 166.969C151.773 167.344 151.254 167.648 150.637 167.883C150.027 168.117 149.305 168.234 148.469 168.234ZM161.242 155.32V156.984H154.387V155.32H161.242ZM156.707 152.238H158.875V164.859C158.875 165.289 158.941 165.613 159.074 165.832C159.207 166.051 159.379 166.195 159.59 166.266C159.801 166.336 160.027 166.371 160.27 166.371C160.449 166.371 160.637 166.355 160.832 166.324C161.035 166.285 161.188 166.254 161.289 166.23L161.301 168C161.129 168.055 160.902 168.105 160.621 168.152C160.348 168.207 160.016 168.234 159.625 168.234C159.094 168.234 158.605 168.129 158.16 167.918C157.715 167.707 157.359 167.355 157.094 166.863C156.836 166.363 156.707 165.691 156.707 164.848V152.238ZM171.543 165.07V155.32H173.723V168H171.648L171.543 165.07ZM171.953 162.398L172.855 162.375C172.855 163.219 172.766 164 172.586 164.719C172.414 165.43 172.133 166.047 171.742 166.57C171.352 167.094 170.84 167.504 170.207 167.801C169.574 168.09 168.805 168.234 167.898 168.234C167.281 168.234 166.715 168.145 166.199 167.965C165.691 167.785 165.254 167.508 164.887 167.133C164.52 166.758 164.234 166.27 164.031 165.668C163.836 165.066 163.738 164.344 163.738 163.5V155.32H165.906V163.523C165.906 164.094 165.969 164.566 166.094 164.941C166.227 165.309 166.402 165.602 166.621 165.82C166.848 166.031 167.098 166.18 167.371 166.266C167.652 166.352 167.941 166.395 168.238 166.395C169.16 166.395 169.891 166.219 170.43 165.867C170.969 165.508 171.355 165.027 171.59 164.426C171.832 163.816 171.953 163.141 171.953 162.398ZM177.086 155.32H179.266V169.512C179.266 170.285 179.141 170.941 178.891 171.48C178.648 172.02 178.281 172.426 177.789 172.699C177.305 172.98 176.691 173.121 175.949 173.121C175.754 173.121 175.527 173.102 175.27 173.062C175.004 173.023 174.781 172.977 174.602 172.922L174.613 171.176C174.762 171.207 174.93 171.23 175.117 171.246C175.305 171.27 175.469 171.281 175.609 171.281C175.93 171.281 176.199 171.223 176.418 171.105C176.637 170.988 176.801 170.801 176.91 170.543C177.027 170.285 177.086 169.941 177.086 169.512V155.32ZM176.863 151.957C176.863 151.605 176.973 151.309 177.191 151.066C177.41 150.824 177.727 150.703 178.141 150.703C178.562 150.703 178.883 150.824 179.102 151.066C179.32 151.309 179.43 151.605 179.43 151.957C179.43 152.293 179.32 152.582 179.102 152.824C178.883 153.059 178.562 153.176 178.141 153.176C177.727 153.176 177.41 153.059 177.191 152.824C176.973 152.582 176.863 152.293 176.863 151.957ZM190.527 165.07V155.32H192.707V168H190.633L190.527 165.07ZM190.938 162.398L191.84 162.375C191.84 163.219 191.75 164 191.57 164.719C191.398 165.43 191.117 166.047 190.727 166.57C190.336 167.094 189.824 167.504 189.191 167.801C188.559 168.09 187.789 168.234 186.883 168.234C186.266 168.234 185.699 168.145 185.184 167.965C184.676 167.785 184.238 167.508 183.871 167.133C183.504 166.758 183.219 166.27 183.016 165.668C182.82 165.066 182.723 164.344 182.723 163.5V155.32H184.891V163.523C184.891 164.094 184.953 164.566 185.078 164.941C185.211 165.309 185.387 165.602 185.605 165.82C185.832 166.031 186.082 166.18 186.355 166.266C186.637 166.352 186.926 166.395 187.223 166.395C188.145 166.395 188.875 166.219 189.414 165.867C189.953 165.508 190.34 165.027 190.574 164.426C190.816 163.816 190.938 163.141 190.938 162.398Z" fill="black"/>
<g clip-path="url(#clip3_573_2270)">
<rect width="40" height="40" transform="translate(0 141)" fill="#6750A4" fill-opacity="0.08"/>
<path d="M23.6299 162.452V163.765H16.4521L16.3975 162.773L20.6904 156.047H22.0098L20.5811 158.494L18.1133 162.452H23.6299ZM22.3857 156.047V166H20.7383V156.047H22.3857Z" fill="#0C51FF"/>
</g>
<rect x="0.5" y="141.5" width="39" height="39" rx="19.5" stroke="#79747E"/>
<path d="M78.0742 210.688C78.0742 210.289 78.0117 209.938 77.8867 209.633C77.7695 209.32 77.5586 209.039 77.2539 208.789C76.957 208.539 76.543 208.301 76.0117 208.074C75.4883 207.848 74.8242 207.617 74.0195 207.383C73.1758 207.133 72.4141 206.855 71.7344 206.551C71.0547 206.238 70.4727 205.883 69.9883 205.484C69.5039 205.086 69.1328 204.629 68.875 204.113C68.6172 203.598 68.4883 203.008 68.4883 202.344C68.4883 201.68 68.625 201.066 68.8984 200.504C69.1719 199.941 69.5625 199.453 70.0703 199.039C70.5859 198.617 71.1992 198.289 71.9102 198.055C72.6211 197.82 73.4141 197.703 74.2891 197.703C75.5703 197.703 76.6562 197.949 77.5469 198.441C78.4453 198.926 79.1289 199.562 79.5977 200.352C80.0664 201.133 80.3008 201.969 80.3008 202.859H78.0508C78.0508 202.219 77.9141 201.652 77.6406 201.16C77.3672 200.66 76.9531 200.27 76.3984 199.988C75.8438 199.699 75.1406 199.555 74.2891 199.555C73.4844 199.555 72.8203 199.676 72.2969 199.918C71.7734 200.16 71.3828 200.488 71.125 200.902C70.875 201.316 70.75 201.789 70.75 202.32C70.75 202.68 70.8242 203.008 70.9727 203.305C71.1289 203.594 71.3672 203.863 71.6875 204.113C72.0156 204.363 72.4297 204.594 72.9297 204.805C73.4375 205.016 74.043 205.219 74.7461 205.414C75.7148 205.688 76.5508 205.992 77.2539 206.328C77.957 206.664 78.5352 207.043 78.9883 207.465C79.4492 207.879 79.7891 208.352 80.0078 208.883C80.2344 209.406 80.3477 210 80.3477 210.664C80.3477 211.359 80.207 211.988 79.9258 212.551C79.6445 213.113 79.2422 213.594 78.7188 213.992C78.1953 214.391 77.5664 214.699 76.832 214.918C76.1055 215.129 75.293 215.234 74.3945 215.234C73.6055 215.234 72.8281 215.125 72.0625 214.906C71.3047 214.688 70.6133 214.359 69.9883 213.922C69.3711 213.484 68.875 212.945 68.5 212.305C68.1328 211.656 67.9492 210.906 67.9492 210.055H70.1992C70.1992 210.641 70.3125 211.145 70.5391 211.566C70.7656 211.98 71.0742 212.324 71.4648 212.598C71.8633 212.871 72.3125 213.074 72.8125 213.207C73.3203 213.332 73.8477 213.395 74.3945 213.395C75.1836 213.395 75.8516 213.285 76.3984 213.066C76.9453 212.848 77.3594 212.535 77.6406 212.129C77.9297 211.723 78.0742 211.242 78.0742 210.688ZM88.1641 215.234C87.2812 215.234 86.4805 215.086 85.7617 214.789C85.0508 214.484 84.4375 214.059 83.9219 213.512C83.4141 212.965 83.0234 212.316 82.75 211.566C82.4766 210.816 82.3398 209.996 82.3398 209.105V208.613C82.3398 207.582 82.4922 206.664 82.7969 205.859C83.1016 205.047 83.5156 204.359 84.0391 203.797C84.5625 203.234 85.1562 202.809 85.8203 202.52C86.4844 202.23 87.1719 202.086 87.8828 202.086C88.7891 202.086 89.5703 202.242 90.2266 202.555C90.8906 202.867 91.4336 203.305 91.8555 203.867C92.2773 204.422 92.5898 205.078 92.793 205.836C92.9961 206.586 93.0977 207.406 93.0977 208.297V209.27H83.6289V207.5H90.9297V207.336C90.8984 206.773 90.7812 206.227 90.5781 205.695C90.3828 205.164 90.0703 204.727 89.6406 204.383C89.2109 204.039 88.625 203.867 87.8828 203.867C87.3906 203.867 86.9375 203.973 86.5234 204.184C86.1094 204.387 85.7539 204.691 85.457 205.098C85.1602 205.504 84.9297 206 84.7656 206.586C84.6016 207.172 84.5195 207.848 84.5195 208.613V209.105C84.5195 209.707 84.6016 210.273 84.7656 210.805C84.9375 211.328 85.1836 211.789 85.5039 212.188C85.832 212.586 86.2266 212.898 86.6875 213.125C87.1562 213.352 87.6875 213.465 88.2812 213.465C89.0469 213.465 89.6953 213.309 90.2266 212.996C90.7578 212.684 91.2227 212.266 91.6211 211.742L92.9336 212.785C92.6602 213.199 92.3125 213.594 91.8906 213.969C91.4688 214.344 90.9492 214.648 90.332 214.883C89.7227 215.117 89 215.234 88.1641 215.234ZM100.938 202.32V203.984H94.082V202.32H100.938ZM96.4023 199.238H98.5703V211.859C98.5703 212.289 98.6367 212.613 98.7695 212.832C98.9023 213.051 99.0742 213.195 99.2852 213.266C99.4961 213.336 99.7227 213.371 99.9648 213.371C100.145 213.371 100.332 213.355 100.527 213.324C100.73 213.285 100.883 213.254 100.984 213.23L100.996 215C100.824 215.055 100.598 215.105 100.316 215.152C100.043 215.207 99.7109 215.234 99.3203 215.234C98.7891 215.234 98.3008 215.129 97.8555 214.918C97.4102 214.707 97.0547 214.355 96.7891 213.863C96.5312 213.363 96.4023 212.691 96.4023 211.848V199.238ZM111.238 212.07V202.32H113.418V215H111.344L111.238 212.07ZM111.648 209.398L112.551 209.375C112.551 210.219 112.461 211 112.281 211.719C112.109 212.43 111.828 213.047 111.438 213.57C111.047 214.094 110.535 214.504 109.902 214.801C109.27 215.09 108.5 215.234 107.594 215.234C106.977 215.234 106.41 215.145 105.895 214.965C105.387 214.785 104.949 214.508 104.582 214.133C104.215 213.758 103.93 213.27 103.727 212.668C103.531 212.066 103.434 211.344 103.434 210.5V202.32H105.602V210.523C105.602 211.094 105.664 211.566 105.789 211.941C105.922 212.309 106.098 212.602 106.316 212.82C106.543 213.031 106.793 213.18 107.066 213.266C107.348 213.352 107.637 213.395 107.934 213.395C108.855 213.395 109.586 213.219 110.125 212.867C110.664 212.508 111.051 212.027 111.285 211.426C111.527 210.816 111.648 210.141 111.648 209.398ZM116.781 202.32H118.961V216.512C118.961 217.285 118.836 217.941 118.586 218.48C118.344 219.02 117.977 219.426 117.484 219.699C117 219.98 116.387 220.121 115.645 220.121C115.449 220.121 115.223 220.102 114.965 220.062C114.699 220.023 114.477 219.977 114.297 219.922L114.309 218.176C114.457 218.207 114.625 218.23 114.812 218.246C115 218.27 115.164 218.281 115.305 218.281C115.625 218.281 115.895 218.223 116.113 218.105C116.332 217.988 116.496 217.801 116.605 217.543C116.723 217.285 116.781 216.941 116.781 216.512V202.32ZM116.559 198.957C116.559 198.605 116.668 198.309 116.887 198.066C117.105 197.824 117.422 197.703 117.836 197.703C118.258 197.703 118.578 197.824 118.797 198.066C119.016 198.309 119.125 198.605 119.125 198.957C119.125 199.293 119.016 199.582 118.797 199.824C118.578 200.059 118.258 200.176 117.836 200.176C117.422 200.176 117.105 200.059 116.887 199.824C116.668 199.582 116.559 199.293 116.559 198.957ZM130.223 212.07V202.32H132.402V215H130.328L130.223 212.07ZM130.633 209.398L131.535 209.375C131.535 210.219 131.445 211 131.266 211.719C131.094 212.43 130.812 213.047 130.422 213.57C130.031 214.094 129.52 214.504 128.887 214.801C128.254 215.09 127.484 215.234 126.578 215.234C125.961 215.234 125.395 215.145 124.879 214.965C124.371 214.785 123.934 214.508 123.566 214.133C123.199 213.758 122.914 213.27 122.711 212.668C122.516 212.066 122.418 211.344 122.418 210.5V202.32H124.586V210.523C124.586 211.094 124.648 211.566 124.773 211.941C124.906 212.309 125.082 212.602 125.301 212.82C125.527 213.031 125.777 213.18 126.051 213.266C126.332 213.352 126.621 213.395 126.918 213.395C127.84 213.395 128.57 213.219 129.109 212.867C129.648 212.508 130.035 212.027 130.27 211.426C130.512 210.816 130.633 210.141 130.633 209.398Z" fill="black"/>
<g clip-path="url(#clip4_573_2270)">
<rect width="40" height="40" transform="translate(0 188)" fill="#6750A4" fill-opacity="0.08"/>
<path d="M18.5029 208.372L17.1904 208.051L17.7305 203.047H23.0967V204.441H19.0977L18.8242 206.882C18.9792 206.791 19.1934 206.702 19.4668 206.615C19.7402 206.524 20.0524 206.479 20.4033 206.479C20.8727 206.479 21.292 206.556 21.6611 206.711C22.0348 206.861 22.3516 207.082 22.6113 207.374C22.8711 207.661 23.0693 208.012 23.2061 208.427C23.3428 208.837 23.4111 209.299 23.4111 209.814C23.4111 210.275 23.3428 210.705 23.2061 211.106C23.0739 211.507 22.8734 211.861 22.6045 212.166C22.3356 212.471 21.9961 212.711 21.5859 212.884C21.1803 213.052 20.6995 213.137 20.1436 213.137C19.7288 213.137 19.3301 213.077 18.9473 212.959C18.569 212.836 18.2295 212.656 17.9287 212.419C17.6279 212.177 17.3864 211.881 17.2041 211.53C17.0218 211.175 16.917 210.767 16.8896 210.307H18.5029C18.5439 210.63 18.6328 210.906 18.7695 211.134C18.9108 211.357 19.0977 211.528 19.3301 211.646C19.5625 211.765 19.8314 211.824 20.1367 211.824C20.4147 211.824 20.654 211.776 20.8545 211.681C21.055 211.58 21.2214 211.439 21.3535 211.257C21.4902 211.07 21.5905 210.851 21.6543 210.601C21.7227 210.35 21.7568 210.072 21.7568 209.767C21.7568 209.475 21.7181 209.208 21.6406 208.967C21.5677 208.725 21.4561 208.516 21.3057 208.338C21.1598 208.16 20.9753 208.023 20.752 207.928C20.5286 207.827 20.2712 207.777 19.9795 207.777C19.5876 207.777 19.2868 207.834 19.0771 207.948C18.8721 208.062 18.6807 208.203 18.5029 208.372Z" fill="#0C51FF"/>
</g>
<rect x="0.5" y="188.5" width="39" height="39" rx="19.5" stroke="#79747E"/>
<defs>
<clipPath id="clip0_573_2270">
<rect width="40" height="40" rx="20" fill="white"/>
</clipPath>
<clipPath id="clip1_573_2270">
<rect y="47" width="40" height="40" rx="20" fill="white"/>
</clipPath>
<clipPath id="clip2_573_2270">
<rect y="94" width="40" height="40" rx="20" fill="white"/>
</clipPath>
<clipPath id="clip3_573_2270">
<rect y="141" width="40" height="40" rx="20" fill="white"/>
</clipPath>
<clipPath id="clip4_573_2270">
<rect y="188" width="40" height="40" rx="20" fill="white"/>
</clipPath>
</defs>
</svg>
